<svg xmlns="http://www.w3.org/2000/svg" xmlns:xlink="http://www.w3.org/1999/xlink" width="880" zoomAndPan="magnify" viewBox="0 0 660 139.500001" height="186" preserveAspectRatio="xMidYMid meet" version="1.0"><defs><g/><clipPath id="3ceea7cc01"><rect x="0" width="623" y="0" height="105"/></clipPath><clipPath id="75f1051f78"><path d="M 1 1 L 375.730469 1 L 375.730469 26 L 1 26 Z M 1 1 " clip-rule="nonzero"/></clipPath><clipPath id="ecce77c83e"><rect x="0" width="376" y="0" height="28"/></clipPath></defs><g transform="matrix(1, 0, 0, 1, 19, 17)"><g clip-path="url(#3ceea7cc01)"><g fill="#b5b1a9" fill-opacity="1"><g transform="translate(0.551142, 79.594423)"><g><path d="M 31.4375 1.03125 C 26.113281 1.03125 21.375 -0.210938 17.21875 -2.703125 C 13.070312 -5.191406 9.863281 -8.570312 7.59375 -12.84375 C 5.332031 -17.113281 4.203125 -21.765625 4.203125 -26.796875 C 4.203125 -32.703125 5.691406 -37.757812 8.671875 -41.96875 C 11.648438 -46.175781 15.472656 -49.335938 20.140625 -51.453125 C 24.804688 -53.578125 29.578125 -54.640625 34.453125 -54.640625 C 39.890625 -54.640625 44.671875 -53.363281 48.796875 -50.8125 C 52.921875 -48.257812 56.082031 -44.894531 58.28125 -40.71875 C 60.488281 -36.539062 61.59375 -32.101562 61.59375 -27.40625 C 61.59375 -22.195312 60.21875 -17.414062 57.46875 -13.0625 C 54.71875 -8.707031 51.035156 -5.269531 46.421875 -2.75 C 41.816406 -0.226562 36.820312 1.03125 31.4375 1.03125 Z M 34.28125 -1.109375 C 37.488281 -1.109375 40.363281 -2.039062 42.90625 -3.90625 C 45.457031 -5.769531 47.445312 -8.488281 48.875 -12.0625 C 50.3125 -15.644531 51.03125 -19.925781 51.03125 -24.90625 C 51.03125 -30.175781 50.226562 -34.882812 48.625 -39.03125 C 47.019531 -43.1875 44.695312 -46.4375 41.65625 -48.78125 C 38.625 -51.132812 35.078125 -52.3125 31.015625 -52.3125 C 25.796875 -52.3125 21.785156 -50.347656 18.984375 -46.421875 C 16.179688 -42.503906 14.78125 -37.023438 14.78125 -29.984375 C 14.78125 -24.421875 15.625 -19.445312 17.3125 -15.0625 C 19 -10.6875 21.316406 -7.265625 24.265625 -4.796875 C 27.210938 -2.335938 30.550781 -1.109375 34.28125 -1.109375 Z M 34.28125 -1.109375 "/></g></g></g><g fill="#b5b1a9" fill-opacity="1"><g transform="translate(66.862268, 79.594423)"><g/></g></g><g fill="#b5b1a9" fill-opacity="1"><g transform="translate(87.477175, 79.594423)"><g><path d="M 36.6875 -54.640625 C 39.375 -54.640625 42.101562 -54.421875 44.875 -53.984375 C 47.65625 -53.554688 49.878906 -53 51.546875 -52.3125 C 52.054688 -52.144531 52.382812 -51.929688 52.53125 -51.671875 C 52.675781 -51.410156 52.773438 -50.96875 52.828125 -50.34375 L 53.953125 -38.40625 C 53.953125 -38.226562 53.804688 -38.109375 53.515625 -38.046875 C 53.234375 -37.992188 53.035156 -38.082031 52.921875 -38.3125 C 51.316406 -43.007812 49.023438 -46.601562 46.046875 -49.09375 C 43.066406 -51.582031 39.488281 -52.828125 35.3125 -52.828125 C 31.414062 -52.828125 27.9375 -51.78125 24.875 -49.6875 C 21.8125 -47.601562 19.40625 -44.613281 17.65625 -40.71875 C 15.90625 -36.820312 15.03125 -32.269531 15.03125 -27.0625 C 15.03125 -21.789062 15.929688 -17.164062 17.734375 -13.1875 C 19.546875 -9.207031 22.039062 -6.140625 25.21875 -3.984375 C 28.394531 -1.835938 32.046875 -0.765625 36.171875 -0.765625 C 40.117188 -0.765625 43.4375 -1.835938 46.125 -3.984375 C 48.820312 -6.140625 51.375 -9.679688 53.78125 -14.609375 C 53.832031 -14.773438 54 -14.828125 54.28125 -14.765625 C 54.570312 -14.710938 54.71875 -14.601562 54.71875 -14.4375 L 53.4375 -3.78125 C 53.320312 -3.09375 53.207031 -2.644531 53.09375 -2.4375 C 52.976562 -2.238281 52.660156 -2.023438 52.140625 -1.796875 C 46.867188 0.0859375 41.546875 1.03125 36.171875 1.03125 C 30.035156 1.03125 24.546875 -0.125 19.703125 -2.4375 C 14.867188 -4.757812 11.078125 -8.007812 8.328125 -12.1875 C 5.578125 -16.375 4.203125 -21.128906 4.203125 -26.453125 C 4.203125 -31.898438 5.617188 -36.753906 8.453125 -41.015625 C 11.296875 -45.285156 15.191406 -48.625 20.140625 -51.03125 C 25.097656 -53.4375 30.613281 -54.640625 36.6875 -54.640625 Z M 36.6875 -54.640625 "/></g></g></g><g fill="#b5b1a9" fill-opacity="1"><g transform="translate(146.487217, 79.594423)"><g><path d="M 61.59375 -1.03125 C 61.882812 -1.03125 62.03125 -0.859375 62.03125 -0.515625 C 62.03125 -0.171875 61.882812 0 61.59375 0 C 60.445312 0 58.671875 -0.0546875 56.265625 -0.171875 C 53.742188 -0.285156 51.941406 -0.34375 50.859375 -0.34375 C 49.421875 -0.34375 47.671875 -0.285156 45.609375 -0.171875 C 43.671875 -0.0546875 42.128906 0 40.984375 0 C 40.753906 0 40.640625 -0.171875 40.640625 -0.515625 C 40.640625 -0.859375 40.753906 -1.03125 40.984375 -1.03125 C 42.460938 -1.03125 43.53125 -1.1875 44.1875 -1.5 C 44.851562 -1.8125 45.1875 -2.367188 45.1875 -3.171875 C 45.1875 -4.148438 44.613281 -5.785156 43.46875 -8.078125 L 37.625 -19.671875 L 16.5 -19.671875 L 13.140625 -12.203125 C 12.398438 -10.535156 12.03125 -8.988281 12.03125 -7.5625 C 12.03125 -5.5 12.757812 -3.894531 14.21875 -2.75 C 15.675781 -1.601562 17.640625 -1.03125 20.109375 -1.03125 C 20.390625 -1.03125 20.53125 -0.859375 20.53125 -0.515625 C 20.53125 -0.171875 20.390625 0 20.109375 0 C 19.078125 0 17.585938 -0.0546875 15.640625 -0.171875 C 13.460938 -0.285156 11.570312 -0.34375 9.96875 -0.34375 C 8.414062 -0.34375 6.550781 -0.285156 4.375 -0.171875 C 2.425781 -0.0546875 0.851562 0 -0.34375 0 C -0.570312 0 -0.6875 -0.171875 -0.6875 -0.515625 C -0.6875 -0.859375 -0.570312 -1.03125 -0.34375 -1.03125 C 1.257812 -1.03125 2.601562 -1.359375 3.6875 -2.015625 C 4.78125 -2.671875 5.867188 -3.84375 6.953125 -5.53125 C 8.046875 -7.226562 9.335938 -9.738281 10.828125 -13.0625 L 29.46875 -54.03125 C 29.582031 -54.207031 29.835938 -54.296875 30.234375 -54.296875 C 30.691406 -54.296875 30.953125 -54.207031 31.015625 -54.03125 L 52.484375 -11.765625 C 54.492188 -7.703125 56.15625 -4.894531 57.46875 -3.34375 C 58.789062 -1.800781 60.164062 -1.03125 61.59375 -1.03125 Z M 17.609375 -22.078125 L 36.34375 -22.078125 L 26.453125 -41.671875 Z M 17.609375 -22.078125 "/></g></g></g><g fill="#b5b1a9" fill-opacity="1"><g transform="translate(208.503598, 79.594423)"><g><path d="M 14.953125 -45.015625 C 14.953125 -42.953125 15.476562 -41.117188 16.53125 -39.515625 C 17.59375 -37.910156 18.894531 -36.503906 20.4375 -35.296875 C 21.988281 -34.097656 24.082031 -32.640625 26.71875 -30.921875 C 29.582031 -29.085938 31.875 -27.484375 33.59375 -26.109375 C 35.3125 -24.734375 36.769531 -23.054688 37.96875 -21.078125 C 39.175781 -19.109375 39.78125 -16.835938 39.78125 -14.265625 C 39.78125 -11.285156 38.976562 -8.632812 37.375 -6.3125 C 35.769531 -3.988281 33.546875 -2.179688 30.703125 -0.890625 C 27.867188 0.390625 24.707031 1.03125 21.21875 1.03125 C 18.644531 1.03125 15.953125 0.675781 13.140625 -0.03125 C 10.335938 -0.75 8.445312 -1.539062 7.46875 -2.40625 C 7.1875 -2.632812 6.972656 -2.847656 6.828125 -3.046875 C 6.679688 -3.242188 6.609375 -3.570312 6.609375 -4.03125 L 6.359375 -17.703125 L 6.359375 -17.78125 C 6.359375 -18.007812 6.5 -18.140625 6.78125 -18.171875 C 7.070312 -18.203125 7.242188 -18.101562 7.296875 -17.875 C 9.015625 -14.375 10.519531 -11.535156 11.8125 -9.359375 C 13.101562 -7.179688 14.734375 -5.257812 16.703125 -3.59375 C 18.679688 -1.9375 20.929688 -1.109375 23.453125 -1.109375 C 25.742188 -1.109375 27.632812 -1.722656 29.125 -2.953125 C 30.613281 -4.191406 31.359375 -6.300781 31.359375 -9.28125 C 31.359375 -11.800781 30.796875 -14.003906 29.671875 -15.890625 C 28.554688 -17.785156 27.195312 -19.390625 25.59375 -20.703125 C 23.988281 -22.015625 21.785156 -23.585938 18.984375 -25.421875 C 16.234375 -27.203125 14.097656 -28.722656 12.578125 -29.984375 C 11.066406 -31.242188 9.765625 -32.757812 8.671875 -34.53125 C 7.585938 -36.3125 7.046875 -38.40625 7.046875 -40.8125 C 7.046875 -43.84375 7.914062 -46.398438 9.65625 -48.484375 C 11.40625 -50.578125 13.65625 -52.125 16.40625 -53.125 C 19.15625 -54.132812 22.046875 -54.640625 25.078125 -54.640625 C 27.085938 -54.640625 29.125 -54.453125 31.1875 -54.078125 C 33.25 -53.703125 34.910156 -53.257812 36.171875 -52.75 C 36.679688 -52.519531 37.019531 -52.273438 37.1875 -52.015625 C 37.363281 -51.753906 37.453125 -51.425781 37.453125 -51.03125 L 37.453125 -38.40625 C 37.453125 -38.226562 37.304688 -38.097656 37.015625 -38.015625 C 36.734375 -37.929688 36.566406 -37.972656 36.515625 -38.140625 L 35.828125 -39.78125 C 34.390625 -43.382812 32.710938 -46.445312 30.796875 -48.96875 C 28.878906 -51.488281 26.203125 -52.75 22.765625 -52.75 C 20.472656 -52.75 18.597656 -52.085938 17.140625 -50.765625 C 15.679688 -49.453125 14.953125 -47.535156 14.953125 -45.015625 Z M 14.953125 -45.015625 "/></g></g></g><g fill="#b5b1a9" fill-opacity="1"><g transform="translate(253.25505, 79.594423)"><g><path d="M 61.59375 -1.03125 C 61.882812 -1.03125 62.03125 -0.859375 62.03125 -0.515625 C 62.03125 -0.171875 61.882812 0 61.59375 0 C 60.445312 0 58.671875 -0.0546875 56.265625 -0.171875 C 53.742188 -0.285156 51.941406 -0.34375 50.859375 -0.34375 C 49.421875 -0.34375 47.671875 -0.285156 45.609375 -0.171875 C 43.671875 -0.0546875 42.128906 0 40.984375 0 C 40.753906 0 40.640625 -0.171875 40.640625 -0.515625 C 40.640625 -0.859375 40.753906 -1.03125 40.984375 -1.03125 C 42.460938 -1.03125 43.53125 -1.1875 44.1875 -1.5 C 44.851562 -1.8125 45.1875 -2.367188 45.1875 -3.171875 C 45.1875 -4.148438 44.613281 -5.785156 43.46875 -8.078125 L 37.625 -19.671875 L 16.5 -19.671875 L 13.140625 -12.203125 C 12.398438 -10.535156 12.03125 -8.988281 12.03125 -7.5625 C 12.03125 -5.5 12.757812 -3.894531 14.21875 -2.75 C 15.675781 -1.601562 17.640625 -1.03125 20.109375 -1.03125 C 20.390625 -1.03125 20.53125 -0.859375 20.53125 -0.515625 C 20.53125 -0.171875 20.390625 0 20.109375 0 C 19.078125 0 17.585938 -0.0546875 15.640625 -0.171875 C 13.460938 -0.285156 11.570312 -0.34375 9.96875 -0.34375 C 8.414062 -0.34375 6.550781 -0.285156 4.375 -0.171875 C 2.425781 -0.0546875 0.851562 0 -0.34375 0 C -0.570312 0 -0.6875 -0.171875 -0.6875 -0.515625 C -0.6875 -0.859375 -0.570312 -1.03125 -0.34375 -1.03125 C 1.257812 -1.03125 2.601562 -1.359375 3.6875 -2.015625 C 4.78125 -2.671875 5.867188 -3.84375 6.953125 -5.53125 C 8.046875 -7.226562 9.335938 -9.738281 10.828125 -13.0625 L 29.46875 -54.03125 C 29.582031 -54.207031 29.835938 -54.296875 30.234375 -54.296875 C 30.691406 -54.296875 30.953125 -54.207031 31.015625 -54.03125 L 52.484375 -11.765625 C 54.492188 -7.703125 56.15625 -4.894531 57.46875 -3.34375 C 58.789062 -1.800781 60.164062 -1.03125 61.59375 -1.03125 Z M 17.609375 -22.078125 L 36.34375 -22.078125 L 26.453125 -41.671875 Z M 17.609375 -22.078125 "/></g></g></g><g fill="#b5b1a9" fill-opacity="1"><g transform="translate(315.271446, 79.594423)"><g><path d="M 71.5625 -1.03125 C 71.675781 -1.03125 71.734375 -0.859375 71.734375 -0.515625 C 71.734375 -0.171875 71.675781 0 71.5625 0 C 69.613281 0 68.066406 -0.0234375 66.921875 -0.078125 L 60.5625 -0.171875 L 54.125 -0.078125 C 53.03125 -0.0234375 51.539062 0 49.65625 0 C 49.476562 0 49.390625 -0.171875 49.390625 -0.515625 C 49.390625 -0.859375 49.476562 -1.03125 49.65625 -1.03125 C 52.0625 -1.03125 53.691406 -1.316406 54.546875 -1.890625 C 55.410156 -2.460938 55.84375 -3.664062 55.84375 -5.5 L 55.75 -6.953125 L 53.953125 -42.09375 L 36.25 -0.59375 C 36.132812 -0.363281 35.90625 -0.25 35.5625 -0.25 C 35.21875 -0.25 34.988281 -0.363281 34.875 -0.59375 L 13.140625 -41.921875 L 12.453125 -10.90625 C 12.398438 -7.8125 13.015625 -5.390625 14.296875 -3.640625 C 15.585938 -1.898438 17.410156 -1.03125 19.765625 -1.03125 C 19.929688 -1.03125 20.015625 -0.859375 20.015625 -0.515625 C 20.015625 -0.171875 19.929688 0 19.765625 0 C 18.210938 0 17.007812 -0.0234375 16.15625 -0.078125 L 11.421875 -0.171875 L 6.015625 -0.078125 C 5.097656 -0.0234375 3.863281 0 2.3125 0 C 2.144531 0 2.0625 -0.171875 2.0625 -0.515625 C 2.0625 -0.859375 2.144531 -1.03125 2.3125 -1.03125 C 4.664062 -1.03125 6.53125 -1.914062 7.90625 -3.6875 C 9.28125 -5.46875 9.992188 -7.875 10.046875 -10.90625 L 10.828125 -46.46875 L 10.734375 -46.5625 C 9.585938 -48.675781 8.398438 -50.21875 7.171875 -51.1875 C 5.941406 -52.164062 4.523438 -52.65625 2.921875 -52.65625 C 2.742188 -52.65625 2.65625 -52.828125 2.65625 -53.171875 C 2.65625 -53.515625 2.742188 -53.6875 2.921875 -53.6875 L 6.953125 -53.609375 C 7.753906 -53.546875 8.785156 -53.515625 10.046875 -53.515625 L 14.609375 -53.609375 C 15.117188 -53.660156 15.773438 -53.6875 16.578125 -53.6875 C 17.328125 -53.6875 17.898438 -53.425781 18.296875 -52.90625 C 18.703125 -52.394531 19.445312 -51.164062 20.53125 -49.21875 L 39.265625 -14.09375 L 55.578125 -51.546875 C 55.921875 -52.347656 56.28125 -52.90625 56.65625 -53.21875 C 57.03125 -53.53125 57.53125 -53.6875 58.15625 -53.6875 C 58.675781 -53.6875 59.265625 -53.65625 59.921875 -53.59375 C 60.578125 -53.539062 61.335938 -53.515625 62.203125 -53.515625 L 67.265625 -53.609375 C 68.066406 -53.660156 69.210938 -53.6875 70.703125 -53.6875 C 70.867188 -53.6875 70.953125 -53.515625 70.953125 -53.171875 C 70.953125 -52.828125 70.867188 -52.65625 70.703125 -52.65625 C 68.003906 -52.65625 66.054688 -52.109375 64.859375 -51.015625 C 63.660156 -49.929688 63.117188 -48.242188 63.234375 -45.953125 L 65.28125 -6.953125 C 65.394531 -5.179688 65.609375 -3.894531 65.921875 -3.09375 C 66.242188 -2.289062 66.816406 -1.742188 67.640625 -1.453125 C 68.472656 -1.171875 69.78125 -1.03125 71.5625 -1.03125 Z M 71.5625 -1.03125 "/></g></g></g><g fill="#b5b1a9" fill-opacity="1"><g transform="translate(389.399, 79.594423)"><g><path d="M 42.609375 -13.65625 C 42.609375 -13.769531 42.722656 -13.828125 42.953125 -13.828125 C 43.117188 -13.828125 43.273438 -13.785156 43.421875 -13.703125 C 43.566406 -13.617188 43.640625 -13.546875 43.640625 -13.484375 C 43.066406 -9.015625 42.78125 -4.945312 42.78125 -1.28125 C 42.78125 -0.820312 42.691406 -0.492188 42.515625 -0.296875 C 42.347656 -0.0976562 42.007812 0 41.5 0 L 3.515625 0 C 3.347656 0 3.265625 -0.171875 3.265625 -0.515625 C 3.265625 -0.859375 3.347656 -1.03125 3.515625 -1.03125 C 5.347656 -1.03125 6.679688 -1.171875 7.515625 -1.453125 C 8.347656 -1.742188 8.90625 -2.300781 9.1875 -3.125 C 9.476562 -3.957031 9.625 -5.234375 9.625 -6.953125 L 9.625 -46.734375 C 9.625 -48.453125 9.476562 -49.710938 9.1875 -50.515625 C 8.90625 -51.316406 8.332031 -51.875 7.46875 -52.1875 C 6.613281 -52.5 5.296875 -52.65625 3.515625 -52.65625 C 3.347656 -52.65625 3.265625 -52.828125 3.265625 -53.171875 C 3.265625 -53.515625 3.347656 -53.6875 3.515625 -53.6875 L 39.953125 -53.6875 C 40.523438 -53.6875 40.8125 -53.429688 40.8125 -52.921875 L 40.984375 -41.5 C 40.984375 -41.382812 40.820312 -41.296875 40.5 -41.234375 C 40.1875 -41.179688 40.003906 -41.238281 39.953125 -41.40625 C 39.035156 -44.726562 37.488281 -47.191406 35.3125 -48.796875 C 33.132812 -50.398438 30.269531 -51.203125 26.71875 -51.203125 L 24.140625 -51.203125 C 22.421875 -51.203125 21.160156 -50.828125 20.359375 -50.078125 C 19.554688 -49.335938 19.15625 -48.191406 19.15625 -46.640625 L 19.15625 -29.125 L 26.28125 -29.125 C 29.601562 -29.125 32.148438 -29.695312 33.921875 -30.84375 C 35.703125 -31.988281 36.59375 -33.59375 36.59375 -35.65625 C 36.59375 -35.820312 36.75 -35.90625 37.0625 -35.90625 C 37.382812 -35.90625 37.546875 -35.820312 37.546875 -35.65625 L 37.453125 -27.921875 L 37.546875 -23.796875 C 37.660156 -21.847656 37.71875 -20.300781 37.71875 -19.15625 C 37.71875 -19.039062 37.546875 -18.984375 37.203125 -18.984375 C 36.859375 -18.984375 36.6875 -19.039062 36.6875 -19.15625 C 36.6875 -21.5 35.78125 -23.34375 33.96875 -24.6875 C 32.164062 -26.039062 29.578125 -26.71875 26.203125 -26.71875 L 19.15625 -26.71875 L 19.15625 -7.296875 C 19.15625 -5.640625 19.46875 -4.410156 20.09375 -3.609375 C 20.726562 -2.804688 21.734375 -2.40625 23.109375 -2.40625 L 25.9375 -2.40625 C 30.40625 -2.40625 33.984375 -3.320312 36.671875 -5.15625 C 39.367188 -6.988281 41.347656 -9.820312 42.609375 -13.65625 Z M 42.609375 -13.65625 "/></g></g></g><g fill="#b5b1a9" fill-opacity="1"><g transform="translate(437.328588, 79.594423)"><g><path d="M 62.109375 -53.6875 C 62.222656 -53.6875 62.28125 -53.515625 62.28125 -53.171875 C 62.28125 -52.828125 62.222656 -52.65625 62.109375 -52.65625 C 59.816406 -52.65625 58.007812 -51.753906 56.6875 -49.953125 C 55.375 -48.148438 54.71875 -45.734375 54.71875 -42.703125 L 54.71875 1.28125 C 54.71875 1.457031 54.585938 1.570312 54.328125 1.625 C 54.078125 1.6875 53.894531 1.660156 53.78125 1.546875 L 13.484375 -44.328125 L 13.484375 -10.90625 C 13.484375 -7.875 14.113281 -5.46875 15.375 -3.6875 C 16.632812 -1.914062 18.382812 -1.03125 20.625 -1.03125 C 20.738281 -1.03125 20.796875 -0.859375 20.796875 -0.515625 C 20.796875 -0.171875 20.738281 0 20.625 0 C 19.019531 0 17.785156 -0.0234375 16.921875 -0.078125 L 12.28125 -0.171875 L 6.953125 -0.078125 C 5.984375 -0.0234375 4.582031 0 2.75 0 C 2.570312 0 2.484375 -0.171875 2.484375 -0.515625 C 2.484375 -0.859375 2.570312 -1.03125 2.75 -1.03125 C 5.269531 -1.03125 7.257812 -1.914062 8.71875 -3.6875 C 10.175781 -5.46875 10.90625 -7.875 10.90625 -10.90625 L 10.90625 -47.25 C 9.019531 -49.3125 7.398438 -50.726562 6.046875 -51.5 C 4.703125 -52.269531 3.316406 -52.65625 1.890625 -52.65625 C 1.773438 -52.65625 1.71875 -52.828125 1.71875 -53.171875 C 1.71875 -53.515625 1.773438 -53.6875 1.890625 -53.6875 L 5.5 -53.609375 C 6.238281 -53.546875 7.328125 -53.515625 8.765625 -53.515625 L 15.296875 -53.609375 C 16.097656 -53.660156 17.070312 -53.6875 18.21875 -53.6875 C 18.675781 -53.6875 19.019531 -53.570312 19.25 -53.34375 C 19.476562 -53.113281 19.878906 -52.628906 20.453125 -51.890625 C 21.421875 -50.566406 22.101562 -49.675781 22.5 -49.21875 L 52.234375 -14.953125 L 52.234375 -42.703125 C 52.234375 -45.785156 51.601562 -48.210938 50.34375 -49.984375 C 49.082031 -51.765625 47.332031 -52.65625 45.09375 -52.65625 C 44.976562 -52.65625 44.921875 -52.828125 44.921875 -53.171875 C 44.921875 -53.515625 44.976562 -53.6875 45.09375 -53.6875 L 48.796875 -53.609375 C 50.628906 -53.492188 52.175781 -53.4375 53.4375 -53.4375 C 54.582031 -53.4375 56.1875 -53.492188 58.25 -53.609375 Z M 62.109375 -53.6875 "/></g></g></g><g fill="#b5b1a9" fill-opacity="1"><g transform="translate(500.976967, 79.594423)"><g><path d="M 19.078125 -51.71875 C 12.253906 -51.71875 7.351562 -47.28125 4.375 -38.40625 C 4.320312 -38.226562 4.148438 -38.15625 3.859375 -38.1875 C 3.578125 -38.21875 3.4375 -38.316406 3.4375 -38.484375 C 3.664062 -40.773438 3.921875 -43.738281 4.203125 -47.375 C 4.492188 -51.007812 4.640625 -53.742188 4.640625 -55.578125 C 4.640625 -55.867188 4.796875 -56.015625 5.109375 -56.015625 C 5.421875 -56.015625 5.578125 -55.867188 5.578125 -55.578125 C 5.578125 -54.316406 7.210938 -53.6875 10.484375 -53.6875 C 15.410156 -53.519531 21.164062 -53.4375 27.75 -53.4375 C 31.125 -53.4375 34.703125 -53.492188 38.484375 -53.609375 L 44.328125 -53.6875 C 46.503906 -53.6875 48.09375 -53.828125 49.09375 -54.109375 C 50.09375 -54.398438 50.738281 -54.976562 51.03125 -55.84375 C 51.082031 -56.070312 51.265625 -56.1875 51.578125 -56.1875 C 51.898438 -56.1875 52.0625 -56.070312 52.0625 -55.84375 C 51.882812 -54.125 51.695312 -51.375 51.5 -47.59375 C 51.300781 -43.8125 51.203125 -40.773438 51.203125 -38.484375 C 51.203125 -38.316406 51.054688 -38.234375 50.765625 -38.234375 C 50.484375 -38.234375 50.3125 -38.316406 50.25 -38.484375 C 49.394531 -42.890625 47.789062 -46.195312 45.4375 -48.40625 C 43.09375 -50.613281 40.203125 -51.71875 36.765625 -51.71875 C 35.109375 -51.71875 34.003906 -51.359375 33.453125 -50.640625 C 32.910156 -49.921875 32.640625 -48.5625 32.640625 -46.5625 L 32.640625 -6.953125 C 32.640625 -5.179688 32.8125 -3.894531 33.15625 -3.09375 C 33.5 -2.289062 34.15625 -1.742188 35.125 -1.453125 C 36.101562 -1.171875 37.65625 -1.03125 39.78125 -1.03125 C 39.945312 -1.03125 40.03125 -0.859375 40.03125 -0.515625 C 40.03125 -0.171875 39.945312 0 39.78125 0 C 37.71875 0 36.082031 -0.0234375 34.875 -0.078125 L 27.75 -0.171875 L 20.796875 -0.078125 C 19.585938 -0.0234375 17.925781 0 15.8125 0 C 15.632812 0 15.546875 -0.171875 15.546875 -0.515625 C 15.546875 -0.859375 15.632812 -1.03125 15.8125 -1.03125 C 17.875 -1.03125 19.40625 -1.171875 20.40625 -1.453125 C 21.40625 -1.742188 22.085938 -2.300781 22.453125 -3.125 C 22.828125 -3.957031 23.015625 -5.234375 23.015625 -6.953125 L 23.015625 -46.734375 C 23.015625 -48.679688 22.757812 -50 22.25 -50.6875 C 21.738281 -51.375 20.679688 -51.71875 19.078125 -51.71875 Z M 19.078125 -51.71875 "/></g></g></g><g fill="#b5b1a9" fill-opacity="1"><g transform="translate(555.17671, 79.594423)"><g><path d="M 31.4375 1.03125 C 26.113281 1.03125 21.375 -0.210938 17.21875 -2.703125 C 13.070312 -5.191406 9.863281 -8.570312 7.59375 -12.84375 C 5.332031 -17.113281 4.203125 -21.765625 4.203125 -26.796875 C 4.203125 -32.703125 5.691406 -37.757812 8.671875 -41.96875 C 11.648438 -46.175781 15.472656 -49.335938 20.140625 -51.453125 C 24.804688 -53.578125 29.578125 -54.640625 34.453125 -54.640625 C 39.890625 -54.640625 44.671875 -53.363281 48.796875 -50.8125 C 52.921875 -48.257812 56.082031 -44.894531 58.28125 -40.71875 C 60.488281 -36.539062 61.59375 -32.101562 61.59375 -27.40625 C 61.59375 -22.195312 60.21875 -17.414062 57.46875 -13.0625 C 54.71875 -8.707031 51.035156 -5.269531 46.421875 -2.75 C 41.816406 -0.226562 36.820312 1.03125 31.4375 1.03125 Z M 34.28125 -1.109375 C 37.488281 -1.109375 40.363281 -2.039062 42.90625 -3.90625 C 45.457031 -5.769531 47.445312 -8.488281 48.875 -12.0625 C 50.3125 -15.644531 51.03125 -19.925781 51.03125 -24.90625 C 51.03125 -30.175781 50.226562 -34.882812 48.625 -39.03125 C 47.019531 -43.1875 44.695312 -46.4375 41.65625 -48.78125 C 38.625 -51.132812 35.078125 -52.3125 31.015625 -52.3125 C 25.796875 -52.3125 21.785156 -50.347656 18.984375 -46.421875 C 16.179688 -42.503906 14.78125 -37.023438 14.78125 -29.984375 C 14.78125 -24.421875 15.625 -19.445312 17.3125 -15.0625 C 19 -10.6875 21.316406 -7.265625 24.265625 -4.796875 C 27.210938 -2.335938 30.550781 -1.109375 34.28125 -1.109375 Z M 34.28125 -1.109375 "/></g></g></g></g></g><g transform="matrix(1, 0, 0, 1, 241, 85)"><g clip-path="url(#ecce77c83e)"><g clip-path="url(#75f1051f78)"><g fill="#b5b1a9" fill-opacity="1"><g transform="translate(3.460075, 19.352174)"><g><path d="M 6.265625 -12.609375 C 6.265625 -12.378906 6.109375 -12.234375 5.796875 -12.171875 C 5.441406 -12.097656 5.160156 -11.898438 4.953125 -11.578125 C 4.742188 -11.285156 4.640625 -10.957031 4.640625 -10.59375 L 4.640625 -2.875 C 4.640625 -0.71875 4.394531 0.894531 3.90625 1.96875 C 3.195312 3.507812 1.898438 4.28125 0.015625 4.28125 C -0.503906 4.28125 -0.945312 4.078125 -1.3125 3.671875 C -1.6875 3.273438 -1.875 2.816406 -1.875 2.296875 C -1.875 1.847656 -1.691406 1.625 -1.328125 1.625 C -1.316406 1.625 -1.148438 1.800781 -0.828125 2.15625 C -0.515625 2.507812 -0.148438 2.6875 0.265625 2.6875 C 1.566406 2.6875 2.421875 2.015625 2.828125 0.671875 C 3.035156 -0.0234375 3.140625 -1.226562 3.140625 -2.9375 L 3.140625 -10.578125 C 3.140625 -11.398438 2.875 -11.929688 2.34375 -12.171875 C 1.875 -12.390625 1.640625 -12.578125 1.640625 -12.734375 C 1.640625 -13.023438 1.851562 -13.171875 2.28125 -13.171875 C 2.488281 -13.171875 2.691406 -13.160156 2.890625 -13.140625 C 3.472656 -13.078125 3.8125 -13.046875 3.90625 -13.046875 C 4.125 -13.046875 4.445312 -13.066406 4.875 -13.109375 C 5.300781 -13.148438 5.625 -13.171875 5.84375 -13.171875 C 6.125 -13.171875 6.265625 -12.984375 6.265625 -12.609375 Z M 6.265625 -12.609375 "/></g></g><g transform="translate(11.253612, 19.352174)"><g><path d="M 8.578125 -7.796875 C 8.578125 -7.390625 8.410156 -6.820312 8.078125 -6.09375 C 7.804688 -5.539062 7.539062 -4.988281 7.28125 -4.4375 C 7.125 -4.0625 6.988281 -3.707031 6.875 -3.375 C 6.6875 -2.800781 6.59375 -2.367188 6.59375 -2.078125 C 6.59375 -1.679688 6.679688 -1.484375 6.859375 -1.484375 C 7.023438 -1.484375 7.253906 -1.625 7.546875 -1.90625 C 7.835938 -2.1875 8.054688 -2.328125 8.203125 -2.328125 C 8.410156 -2.328125 8.515625 -2.242188 8.515625 -2.078125 C 8.515625 -1.671875 8.164062 -1.222656 7.46875 -0.734375 C 6.8125 -0.273438 6.265625 -0.046875 5.828125 -0.046875 C 5.460938 -0.046875 5.28125 -0.226562 5.28125 -0.59375 C 5.28125 -0.9375 5.390625 -1.429688 5.609375 -2.078125 C 5.828125 -2.722656 5.9375 -3.21875 5.9375 -3.5625 C 5.9375 -3.820312 5.863281 -3.953125 5.71875 -3.953125 C 5.507812 -3.953125 5.140625 -3.613281 4.609375 -2.9375 C 3.847656 -1.945312 3.316406 -1.304688 3.015625 -1.015625 C 2.316406 -0.335938 1.671875 0 1.078125 0 C 0.785156 0 0.550781 -0.132812 0.375 -0.40625 C 0.21875 -0.632812 0.140625 -0.90625 0.140625 -1.21875 C 0.140625 -1.945312 0.472656 -2.941406 1.140625 -4.203125 C 1.816406 -5.460938 2.15625 -6.351562 2.15625 -6.875 C 2.15625 -7.195312 2.03125 -7.359375 1.78125 -7.359375 C 1.5625 -7.359375 1.289062 -7.222656 0.96875 -6.953125 C 0.65625 -6.679688 0.453125 -6.546875 0.359375 -6.546875 C 0.203125 -6.546875 0.125 -6.613281 0.125 -6.75 C 0.125 -7.1875 0.460938 -7.644531 1.140625 -8.125 C 1.773438 -8.570312 2.320312 -8.796875 2.78125 -8.796875 C 3.0625 -8.796875 3.289062 -8.6875 3.46875 -8.46875 C 3.644531 -8.257812 3.734375 -8.019531 3.734375 -7.75 C 3.734375 -7.082031 3.382812 -6.140625 2.6875 -4.921875 C 2 -3.710938 1.65625 -2.789062 1.65625 -2.15625 C 1.65625 -1.769531 1.75 -1.578125 1.9375 -1.578125 C 2.476562 -1.578125 3.273438 -2.320312 4.328125 -3.8125 C 5.078125 -4.863281 5.707031 -5.882812 6.21875 -6.875 C 6.34375 -7.144531 6.546875 -7.546875 6.828125 -8.078125 C 7.109375 -8.554688 7.421875 -8.796875 7.765625 -8.796875 C 8.015625 -8.796875 8.21875 -8.691406 8.375 -8.484375 C 8.507812 -8.285156 8.578125 -8.054688 8.578125 -7.796875 Z M 8.578125 -7.796875 "/></g></g><g transform="translate(20.558869, 19.352174)"><g><path d="M 8.59375 -2.125 C 8.59375 -1.6875 8.25 -1.226562 7.5625 -0.75 C 6.914062 -0.300781 6.363281 -0.078125 5.90625 -0.078125 C 5.207031 -0.078125 4.859375 -0.398438 4.859375 -1.046875 C 4.859375 -1.671875 5.21875 -2.613281 5.9375 -3.875 C 6.664062 -5.132812 7.03125 -6.066406 7.03125 -6.671875 C 7.03125 -7.035156 6.9375 -7.21875 6.75 -7.21875 C 6.082031 -7.21875 4.957031 -5.914062 3.375 -3.3125 C 3.175781 -3.019531 2.890625 -2.5625 2.515625 -1.9375 C 2.398438 -1.65625 2.207031 -1.25 1.9375 -0.71875 C 1.65625 -0.238281 1.351562 0 1.03125 0 C 0.445312 0 0.15625 -0.328125 0.15625 -0.984375 C 0.15625 -1.410156 0.320312 -1.976562 0.65625 -2.6875 C 1.15625 -3.71875 1.421875 -4.273438 1.453125 -4.359375 L 1.71875 -5.09375 C 1.957031 -5.757812 2.078125 -6.226562 2.078125 -6.5 C 2.078125 -7.050781 1.976562 -7.328125 1.78125 -7.328125 C 1.625 -7.328125 1.394531 -7.179688 1.09375 -6.890625 C 0.800781 -6.609375 0.585938 -6.46875 0.453125 -6.46875 C 0.253906 -6.46875 0.15625 -6.550781 0.15625 -6.71875 C 0.15625 -7.125 0.5 -7.578125 1.1875 -8.078125 C 1.84375 -8.554688 2.382812 -8.796875 2.8125 -8.796875 C 3.21875 -8.796875 3.421875 -8.617188 3.421875 -8.265625 C 3.421875 -7.929688 3.320312 -7.445312 3.125 -6.8125 C 2.925781 -6.175781 2.828125 -5.691406 2.828125 -5.359375 C 2.828125 -5.023438 2.910156 -4.859375 3.078125 -4.859375 C 3.285156 -4.859375 3.648438 -5.195312 4.171875 -5.875 C 4.910156 -6.863281 5.421875 -7.5 5.703125 -7.78125 C 6.367188 -8.457031 6.984375 -8.796875 7.546875 -8.796875 C 7.867188 -8.796875 8.125 -8.675781 8.3125 -8.4375 C 8.5 -8.195312 8.59375 -7.910156 8.59375 -7.578125 C 8.59375 -6.953125 8.25 -5.941406 7.5625 -4.546875 C 6.875 -3.117188 6.53125 -2.25 6.53125 -1.9375 C 6.53125 -1.664062 6.660156 -1.53125 6.921875 -1.53125 C 7.128906 -1.53125 7.390625 -1.664062 7.703125 -1.9375 C 8.023438 -2.207031 8.238281 -2.34375 8.34375 -2.34375 C 8.507812 -2.34375 8.59375 -2.269531 8.59375 -2.125 Z M 8.59375 -2.125 "/></g></g><g transform="translate(30.099057, 19.352174)"><g><path d="M 6.34375 -8.515625 C 6.34375 -7.953125 5.945312 -7.671875 5.15625 -7.671875 C 5.03125 -7.671875 4.84375 -7.679688 4.59375 -7.703125 C 4.351562 -7.722656 4.175781 -7.734375 4.0625 -7.734375 C 3.6875 -7.734375 3.414062 -7.578125 3.25 -7.265625 C 3.195312 -7.171875 3.101562 -6.851562 2.96875 -6.3125 L 1.890625 -2.25 C 1.878906 -2.195312 1.875 -2.140625 1.875 -2.078125 C 1.875 -1.671875 2.0625 -1.46875 2.4375 -1.46875 C 2.757812 -1.46875 3.085938 -1.726562 3.421875 -2.25 C 3.765625 -2.769531 4.035156 -3.03125 4.234375 -3.03125 C 4.554688 -3.03125 4.71875 -2.890625 4.71875 -2.609375 C 4.71875 -2.273438 4.507812 -1.804688 4.09375 -1.203125 C 3.539062 -0.398438 2.769531 0 1.78125 0 C 1.425781 0 1.101562 -0.113281 0.8125 -0.34375 C 0.476562 -0.570312 0.3125 -0.863281 0.3125 -1.21875 C 0.3125 -1.8125 0.742188 -3.535156 1.609375 -6.390625 C 1.785156 -6.941406 1.875 -7.273438 1.875 -7.390625 C 1.875 -7.546875 1.726562 -7.632812 1.4375 -7.65625 C 1.644531 -7.644531 1.441406 -7.640625 0.828125 -7.640625 C 0.546875 -7.640625 0.40625 -7.742188 0.40625 -7.953125 C 0.40625 -8.347656 0.570312 -8.59375 0.90625 -8.6875 C 1.0625 -8.75 1.382812 -8.78125 1.875 -8.78125 C 2.25 -8.78125 2.523438 -9.050781 2.703125 -9.59375 C 2.921875 -10.226562 3.078125 -10.578125 3.171875 -10.640625 C 3.304688 -10.722656 3.53125 -10.765625 3.84375 -10.765625 C 4.15625 -10.765625 4.3125 -10.671875 4.3125 -10.484375 C 4.3125 -10.328125 4.25 -10.113281 4.125 -9.84375 C 4 -9.570312 3.9375 -9.363281 3.9375 -9.21875 C 3.9375 -8.882812 4.128906 -8.71875 4.515625 -8.71875 C 4.691406 -8.71875 4.957031 -8.726562 5.3125 -8.75 C 5.664062 -8.78125 5.929688 -8.796875 6.109375 -8.796875 C 6.265625 -8.796875 6.34375 -8.703125 6.34375 -8.515625 Z M 6.34375 -8.515625 "/></g></g><g transform="translate(36.891589, 19.352174)"><g><path d="M 6.59375 -6.96875 C 6.59375 -6.269531 6.210938 -5.65625 5.453125 -5.125 C 4.753906 -4.625 4.046875 -4.375 3.328125 -4.375 C 3.210938 -4.375 3.046875 -4.394531 2.828125 -4.4375 C 2.609375 -4.476562 2.441406 -4.5 2.328125 -4.5 C 1.648438 -4.5 1.3125 -3.976562 1.3125 -2.9375 C 1.3125 -1.914062 1.800781 -1.40625 2.78125 -1.40625 C 3.332031 -1.40625 3.914062 -1.640625 4.53125 -2.109375 C 5.15625 -2.578125 5.453125 -2.8125 5.421875 -2.8125 C 5.828125 -2.8125 6.03125 -2.707031 6.03125 -2.5 C 6.03125 -2.414062 5.992188 -2.304688 5.921875 -2.171875 C 5.585938 -1.515625 5.109375 -0.988281 4.484375 -0.59375 C 3.867188 -0.195312 3.203125 0 2.484375 0 C 1.617188 0 0.96875 -0.335938 0.53125 -1.015625 C 0.164062 -1.578125 -0.015625 -2.316406 -0.015625 -3.234375 C -0.015625 -4.648438 0.394531 -5.90625 1.21875 -7 C 2.101562 -8.195312 3.234375 -8.796875 4.609375 -8.796875 C 5.128906 -8.796875 5.585938 -8.617188 5.984375 -8.265625 C 6.390625 -7.910156 6.59375 -7.476562 6.59375 -6.96875 Z M 5.15625 -6.515625 C 5.15625 -6.804688 5.046875 -7.050781 4.828125 -7.25 C 4.617188 -7.457031 4.375 -7.5625 4.09375 -7.5625 C 3.71875 -7.5625 3.347656 -7.359375 2.984375 -6.953125 C 2.628906 -6.554688 2.453125 -6.175781 2.453125 -5.8125 C 2.453125 -5.644531 2.546875 -5.5 2.734375 -5.375 C 2.910156 -5.257812 3.085938 -5.203125 3.265625 -5.203125 C 3.640625 -5.203125 4.035156 -5.328125 4.453125 -5.578125 C 4.921875 -5.859375 5.15625 -6.171875 5.15625 -6.515625 Z M 5.15625 -6.515625 "/></g></g><g transform="translate(43.724978, 19.352174)"><g><path d="M 5.359375 -4.296875 C 5.359375 -4.117188 5.269531 -4.03125 5.09375 -4.03125 L 0.265625 -4.03125 C 0.0859375 -4.03125 0 -4.117188 0 -4.296875 L 0 -5.0625 C 0 -5.238281 0.0859375 -5.328125 0.265625 -5.328125 L 5.09375 -5.328125 C 5.269531 -5.328125 5.359375 -5.238281 5.359375 -5.0625 Z M 5.359375 -4.296875 "/></g></g><g transform="translate(49.077289, 19.352174)"><g><path d="M 5.734375 -7.25 C 5.734375 -6.613281 5.628906 -6.296875 5.421875 -6.296875 C 5.304688 -6.296875 5.035156 -6.492188 4.609375 -6.890625 C 4.179688 -7.285156 3.804688 -7.484375 3.484375 -7.484375 C 3.140625 -7.484375 2.847656 -7.34375 2.609375 -7.0625 C 2.367188 -6.789062 2.25 -6.484375 2.25 -6.140625 C 2.25 -5.847656 2.507812 -5.46875 3.03125 -5 C 3.96875 -4.164062 4.445312 -3.738281 4.46875 -3.71875 C 4.976562 -3.164062 5.234375 -2.632812 5.234375 -2.125 C 5.234375 -1.488281 4.976562 -0.96875 4.46875 -0.5625 C 4 -0.1875 3.4375 0 2.78125 0 C 2.238281 0 1.722656 -0.109375 1.234375 -0.328125 C 0.617188 -0.609375 0.3125 -0.984375 0.3125 -1.453125 C 0.3125 -2.171875 0.425781 -2.53125 0.65625 -2.53125 C 0.664062 -2.53125 0.6875 -2.523438 0.71875 -2.515625 C 1.476562 -1.828125 2.128906 -1.484375 2.671875 -1.484375 C 3.316406 -1.484375 3.640625 -1.765625 3.640625 -2.328125 C 3.640625 -2.554688 3.453125 -2.859375 3.078125 -3.234375 C 2.492188 -3.816406 2.140625 -4.1875 2.015625 -4.34375 C 1.640625 -4.84375 1.453125 -5.359375 1.453125 -5.890625 C 1.453125 -6.640625 1.660156 -7.296875 2.078125 -7.859375 C 2.535156 -8.484375 3.125 -8.796875 3.84375 -8.796875 C 4.101562 -8.796875 4.429688 -8.71875 4.828125 -8.5625 C 5.253906 -8.382812 5.519531 -8.191406 5.625 -7.984375 C 5.695312 -7.847656 5.734375 -7.601562 5.734375 -7.25 Z M 5.734375 -7.25 "/></g></g><g transform="translate(55.859606, 19.352174)"><g><path d="M 6.59375 -6.96875 C 6.59375 -6.269531 6.210938 -5.65625 5.453125 -5.125 C 4.753906 -4.625 4.046875 -4.375 3.328125 -4.375 C 3.210938 -4.375 3.046875 -4.394531 2.828125 -4.4375 C 2.609375 -4.476562 2.441406 -4.5 2.328125 -4.5 C 1.648438 -4.5 1.3125 -3.976562 1.3125 -2.9375 C 1.3125 -1.914062 1.800781 -1.40625 2.78125 -1.40625 C 3.332031 -1.40625 3.914062 -1.640625 4.53125 -2.109375 C 5.15625 -2.578125 5.453125 -2.8125 5.421875 -2.8125 C 5.828125 -2.8125 6.03125 -2.707031 6.03125 -2.5 C 6.03125 -2.414062 5.992188 -2.304688 5.921875 -2.171875 C 5.585938 -1.515625 5.109375 -0.988281 4.484375 -0.59375 C 3.867188 -0.195312 3.203125 0 2.484375 0 C 1.617188 0 0.96875 -0.335938 0.53125 -1.015625 C 0.164062 -1.578125 -0.015625 -2.316406 -0.015625 -3.234375 C -0.015625 -4.648438 0.394531 -5.90625 1.21875 -7 C 2.101562 -8.195312 3.234375 -8.796875 4.609375 -8.796875 C 5.128906 -8.796875 5.585938 -8.617188 5.984375 -8.265625 C 6.390625 -7.910156 6.59375 -7.476562 6.59375 -6.96875 Z M 5.15625 -6.515625 C 5.15625 -6.804688 5.046875 -7.050781 4.828125 -7.25 C 4.617188 -7.457031 4.375 -7.5625 4.09375 -7.5625 C 3.71875 -7.5625 3.347656 -7.359375 2.984375 -6.953125 C 2.628906 -6.554688 2.453125 -6.175781 2.453125 -5.8125 C 2.453125 -5.644531 2.546875 -5.5 2.734375 -5.375 C 2.910156 -5.257812 3.085938 -5.203125 3.265625 -5.203125 C 3.640625 -5.203125 4.035156 -5.328125 4.453125 -5.578125 C 4.921875 -5.859375 5.15625 -6.171875 5.15625 -6.515625 Z M 5.15625 -6.515625 "/></g></g><g transform="translate(62.692995, 19.352174)"><g/></g><g transform="translate(67.759304, 19.352174)"><g><path d="M 8.875 -2.96875 C 8.875 -2.53125 8.515625 -1.929688 7.796875 -1.171875 C 7.078125 -0.421875 6.492188 -0.046875 6.046875 -0.046875 C 5.359375 -0.046875 5.015625 -0.421875 5.015625 -1.171875 C 5.015625 -1.328125 5.039062 -1.554688 5.09375 -1.859375 C 5.15625 -2.171875 5.1875 -2.40625 5.1875 -2.5625 C 5.1875 -2.75 5.132812 -2.84375 5.03125 -2.84375 C 4.96875 -2.84375 4.460938 -2.367188 3.515625 -1.421875 C 2.566406 -0.472656 1.863281 0 1.40625 0 C 1.007812 0 0.695312 -0.148438 0.46875 -0.453125 C 0.25 -0.734375 0.140625 -1.070312 0.140625 -1.46875 C 0.140625 -2.71875 0.738281 -4.132812 1.9375 -5.71875 C 3.207031 -7.414062 4.550781 -8.40625 5.96875 -8.6875 C 6.257812 -8.726562 6.691406 -8.804688 7.265625 -8.921875 C 7.753906 -9.253906 8.023438 -9.421875 8.078125 -9.421875 C 8.273438 -9.421875 8.375 -9.304688 8.375 -9.078125 C 8.375 -8.953125 8.34375 -8.800781 8.28125 -8.625 L 7.046875 -5.484375 C 6.523438 -4.140625 6.265625 -3.160156 6.265625 -2.546875 C 6.265625 -2.015625 6.488281 -1.75 6.9375 -1.75 C 7.125 -1.75 7.441406 -1.988281 7.890625 -2.46875 C 8.347656 -2.957031 8.617188 -3.203125 8.703125 -3.203125 C 8.816406 -3.203125 8.875 -3.125 8.875 -2.96875 Z M 6.34375 -6.9375 C 6.34375 -7.1875 6.125 -7.3125 5.6875 -7.3125 L 5.5625 -7.3125 C 4.757812 -7.3125 3.867188 -6.722656 2.890625 -5.546875 C 1.929688 -4.398438 1.453125 -3.414062 1.453125 -2.59375 C 1.453125 -2.039062 1.65625 -1.765625 2.0625 -1.765625 C 2.78125 -1.765625 3.679688 -2.453125 4.765625 -3.828125 C 5.816406 -5.148438 6.34375 -6.1875 6.34375 -6.9375 Z M 6.34375 -6.9375 "/></g></g><g transform="translate(77.524207, 19.352174)"><g/></g><g transform="translate(82.590517, 19.352174)"><g><path d="M 8.59375 -2.125 C 8.59375 -1.6875 8.25 -1.226562 7.5625 -0.75 C 6.914062 -0.300781 6.363281 -0.078125 5.90625 -0.078125 C 5.207031 -0.078125 4.859375 -0.398438 4.859375 -1.046875 C 4.859375 -1.671875 5.21875 -2.613281 5.9375 -3.875 C 6.664062 -5.132812 7.03125 -6.066406 7.03125 -6.671875 C 7.03125 -7.035156 6.9375 -7.21875 6.75 -7.21875 C 6.082031 -7.21875 4.957031 -5.914062 3.375 -3.3125 C 3.175781 -3.019531 2.890625 -2.5625 2.515625 -1.9375 C 2.398438 -1.65625 2.207031 -1.25 1.9375 -0.71875 C 1.65625 -0.238281 1.351562 0 1.03125 0 C 0.445312 0 0.15625 -0.328125 0.15625 -0.984375 C 0.15625 -1.410156 0.320312 -1.976562 0.65625 -2.6875 C 1.15625 -3.71875 1.421875 -4.273438 1.453125 -4.359375 L 1.71875 -5.09375 C 1.957031 -5.757812 2.078125 -6.226562 2.078125 -6.5 C 2.078125 -7.050781 1.976562 -7.328125 1.78125 -7.328125 C 1.625 -7.328125 1.394531 -7.179688 1.09375 -6.890625 C 0.800781 -6.609375 0.585938 -6.46875 0.453125 -6.46875 C 0.253906 -6.46875 0.15625 -6.550781 0.15625 -6.71875 C 0.15625 -7.125 0.5 -7.578125 1.1875 -8.078125 C 1.84375 -8.554688 2.382812 -8.796875 2.8125 -8.796875 C 3.21875 -8.796875 3.421875 -8.617188 3.421875 -8.265625 C 3.421875 -7.929688 3.320312 -7.445312 3.125 -6.8125 C 2.925781 -6.175781 2.828125 -5.691406 2.828125 -5.359375 C 2.828125 -5.023438 2.910156 -4.859375 3.078125 -4.859375 C 3.285156 -4.859375 3.648438 -5.195312 4.171875 -5.875 C 4.910156 -6.863281 5.421875 -7.5 5.703125 -7.78125 C 6.367188 -8.457031 6.984375 -8.796875 7.546875 -8.796875 C 7.867188 -8.796875 8.125 -8.675781 8.3125 -8.4375 C 8.5 -8.195312 8.59375 -7.910156 8.59375 -7.578125 C 8.59375 -6.953125 8.25 -5.941406 7.5625 -4.546875 C 6.875 -3.117188 6.53125 -2.25 6.53125 -1.9375 C 6.53125 -1.664062 6.660156 -1.53125 6.921875 -1.53125 C 7.128906 -1.53125 7.390625 -1.664062 7.703125 -1.9375 C 8.023438 -2.207031 8.238281 -2.34375 8.34375 -2.34375 C 8.507812 -2.34375 8.59375 -2.269531 8.59375 -2.125 Z M 8.59375 -2.125 "/></g></g><g transform="translate(92.130704, 19.352174)"><g><path d="M 7.4375 -6.03125 C 7.4375 -4.695312 6.988281 -3.390625 6.09375 -2.109375 C 5.113281 -0.703125 3.988281 0 2.71875 0 C 1.894531 0 1.265625 -0.285156 0.828125 -0.859375 C 0.429688 -1.378906 0.234375 -2.0625 0.234375 -2.90625 C 0.234375 -4.300781 0.660156 -5.597656 1.515625 -6.796875 C 2.453125 -8.128906 3.59375 -8.796875 4.9375 -8.796875 C 6.601562 -8.796875 7.4375 -7.875 7.4375 -6.03125 Z M 6.03125 -6.046875 C 6.03125 -7.054688 5.628906 -7.5625 4.828125 -7.5625 C 3.992188 -7.5625 3.21875 -6.953125 2.5 -5.734375 C 1.863281 -4.640625 1.546875 -3.640625 1.546875 -2.734375 C 1.546875 -1.847656 1.984375 -1.40625 2.859375 -1.40625 C 3.765625 -1.40625 4.539062 -1.96875 5.1875 -3.09375 C 5.75 -4.082031 6.03125 -5.066406 6.03125 -6.046875 Z M 7.625 -15.90625 C 7.625 -15.675781 7.410156 -15.234375 6.984375 -14.578125 C 6.671875 -14.109375 6.378906 -13.519531 6.109375 -12.8125 C 5.890625 -12.1875 5.664062 -11.566406 5.4375 -10.953125 C 5.226562 -10.390625 5 -10.109375 4.75 -10.109375 C 4.550781 -10.109375 4.453125 -10.226562 4.453125 -10.46875 C 4.453125 -10.800781 4.628906 -11.410156 4.984375 -12.296875 C 5.390625 -13.316406 5.625 -13.960938 5.6875 -14.234375 C 5.71875 -14.546875 5.804688 -15 5.953125 -15.59375 C 6.148438 -16.132812 6.453125 -16.40625 6.859375 -16.40625 C 7.367188 -16.40625 7.625 -16.238281 7.625 -15.90625 Z M 7.625 -15.90625 "/></g></g><g transform="translate(100.118313, 19.352174)"><g><path d="M 5.734375 -7.25 C 5.734375 -6.613281 5.628906 -6.296875 5.421875 -6.296875 C 5.304688 -6.296875 5.035156 -6.492188 4.609375 -6.890625 C 4.179688 -7.285156 3.804688 -7.484375 3.484375 -7.484375 C 3.140625 -7.484375 2.847656 -7.34375 2.609375 -7.0625 C 2.367188 -6.789062 2.25 -6.484375 2.25 -6.140625 C 2.25 -5.847656 2.507812 -5.46875 3.03125 -5 C 3.96875 -4.164062 4.445312 -3.738281 4.46875 -3.71875 C 4.976562 -3.164062 5.234375 -2.632812 5.234375 -2.125 C 5.234375 -1.488281 4.976562 -0.96875 4.46875 -0.5625 C 4 -0.1875 3.4375 0 2.78125 0 C 2.238281 0 1.722656 -0.109375 1.234375 -0.328125 C 0.617188 -0.609375 0.3125 -0.984375 0.3125 -1.453125 C 0.3125 -2.171875 0.425781 -2.53125 0.65625 -2.53125 C 0.664062 -2.53125 0.6875 -2.523438 0.71875 -2.515625 C 1.476562 -1.828125 2.128906 -1.484375 2.671875 -1.484375 C 3.316406 -1.484375 3.640625 -1.765625 3.640625 -2.328125 C 3.640625 -2.554688 3.453125 -2.859375 3.078125 -3.234375 C 2.492188 -3.816406 2.140625 -4.1875 2.015625 -4.34375 C 1.640625 -4.84375 1.453125 -5.359375 1.453125 -5.890625 C 1.453125 -6.640625 1.660156 -7.296875 2.078125 -7.859375 C 2.535156 -8.484375 3.125 -8.796875 3.84375 -8.796875 C 4.101562 -8.796875 4.429688 -8.71875 4.828125 -8.5625 C 5.253906 -8.382812 5.519531 -8.191406 5.625 -7.984375 C 5.695312 -7.847656 5.734375 -7.601562 5.734375 -7.25 Z M 5.734375 -7.25 "/></g></g><g transform="translate(106.90063, 19.352174)"><g/></g><g transform="translate(111.96694, 19.352174)"><g><path d="M 8.578125 -6.484375 C 8.578125 -6.015625 8.425781 -5.265625 8.125 -4.234375 C 7.925781 -3.578125 7.570312 -2.96875 7.0625 -2.40625 C 6.53125 -1.820312 5.953125 -1.4375 5.328125 -1.25 C 5.085938 -1.1875 4.691406 -1.15625 4.140625 -1.15625 C 3.597656 -1.15625 3.195312 -1.019531 2.9375 -0.75 C 2.757812 -0.570312 2.5625 -0.191406 2.34375 0.390625 C 1.570312 2.390625 1.1875 3.828125 1.1875 4.703125 C 1.1875 5.035156 1.363281 5.28125 1.71875 5.4375 C 1.726562 5.445312 2.066406 5.546875 2.734375 5.734375 C 3.085938 5.828125 3.265625 5.972656 3.265625 6.171875 C 3.265625 6.453125 3.082031 6.59375 2.71875 6.59375 C 2.476562 6.59375 2.128906 6.535156 1.671875 6.421875 C 1.222656 6.304688 0.878906 6.25 0.640625 6.25 C 0.472656 6.25 0.21875 6.253906 -0.125 6.265625 C -0.46875 6.285156 -0.726562 6.296875 -0.90625 6.296875 C -1.550781 6.296875 -1.875 6.15625 -1.875 5.875 C -1.875 5.800781 -1.695312 5.695312 -1.34375 5.5625 C -0.9375 5.414062 -0.648438 5.148438 -0.484375 4.765625 C -0.328125 4.390625 0.0195312 3.226562 0.5625 1.28125 C 0.695312 0.789062 1.253906 -1.253906 2.234375 -4.859375 C 2.628906 -6.304688 2.828125 -7.050781 2.828125 -7.09375 C 2.828125 -7.21875 2.65625 -7.3125 2.3125 -7.375 C 1.96875 -7.445312 1.796875 -7.570312 1.796875 -7.75 C 1.796875 -7.800781 1.976562 -7.9375 2.34375 -8.15625 C 2.726562 -8.375 2.960938 -8.5625 3.046875 -8.71875 C 3.128906 -9.050781 3.21875 -9.390625 3.3125 -9.734375 C 3.425781 -10.097656 3.695312 -10.28125 4.125 -10.28125 C 4.65625 -10.28125 4.921875 -10.113281 4.921875 -9.78125 C 4.921875 -9.6875 4.894531 -9.546875 4.84375 -9.359375 C 4.789062 -9.179688 4.765625 -9.046875 4.765625 -8.953125 C 4.765625 -8.691406 4.972656 -8.5625 5.390625 -8.5625 C 5.546875 -8.5625 5.773438 -8.597656 6.078125 -8.671875 C 6.390625 -8.753906 6.628906 -8.796875 6.796875 -8.796875 C 7.335938 -8.796875 7.78125 -8.535156 8.125 -8.015625 C 8.425781 -7.554688 8.578125 -7.046875 8.578125 -6.484375 Z M 7.203125 -6.484375 C 7.203125 -6.921875 7.050781 -7.28125 6.75 -7.5625 C 6.445312 -7.851562 6.078125 -8 5.640625 -8 C 5.140625 -8 4.71875 -7.71875 4.375 -7.15625 C 4.1875 -6.84375 3.953125 -6.160156 3.671875 -5.109375 C 3.390625 -4.054688 3.25 -3.335938 3.25 -2.953125 C 3.25 -2.359375 3.59375 -2.0625 4.28125 -2.0625 C 5.03125 -2.0625 5.722656 -2.625 6.359375 -3.75 C 6.921875 -4.738281 7.203125 -5.648438 7.203125 -6.484375 Z M 7.203125 -6.484375 "/></g></g><g transform="translate(121.047482, 19.352174)"><g><path d="M 8.875 -2.96875 C 8.875 -2.53125 8.515625 -1.929688 7.796875 -1.171875 C 7.078125 -0.421875 6.492188 -0.046875 6.046875 -0.046875 C 5.359375 -0.046875 5.015625 -0.421875 5.015625 -1.171875 C 5.015625 -1.328125 5.039062 -1.554688 5.09375 -1.859375 C 5.15625 -2.171875 5.1875 -2.40625 5.1875 -2.5625 C 5.1875 -2.75 5.132812 -2.84375 5.03125 -2.84375 C 4.96875 -2.84375 4.460938 -2.367188 3.515625 -1.421875 C 2.566406 -0.472656 1.863281 0 1.40625 0 C 1.007812 0 0.695312 -0.148438 0.46875 -0.453125 C 0.25 -0.734375 0.140625 -1.070312 0.140625 -1.46875 C 0.140625 -2.71875 0.738281 -4.132812 1.9375 -5.71875 C 3.207031 -7.414062 4.550781 -8.40625 5.96875 -8.6875 C 6.257812 -8.726562 6.691406 -8.804688 7.265625 -8.921875 C 7.753906 -9.253906 8.023438 -9.421875 8.078125 -9.421875 C 8.273438 -9.421875 8.375 -9.304688 8.375 -9.078125 C 8.375 -8.953125 8.34375 -8.800781 8.28125 -8.625 L 7.046875 -5.484375 C 6.523438 -4.140625 6.265625 -3.160156 6.265625 -2.546875 C 6.265625 -2.015625 6.488281 -1.75 6.9375 -1.75 C 7.125 -1.75 7.441406 -1.988281 7.890625 -2.46875 C 8.347656 -2.957031 8.617188 -3.203125 8.703125 -3.203125 C 8.816406 -3.203125 8.875 -3.125 8.875 -2.96875 Z M 6.34375 -6.9375 C 6.34375 -7.1875 6.125 -7.3125 5.6875 -7.3125 L 5.5625 -7.3125 C 4.757812 -7.3125 3.867188 -6.722656 2.890625 -5.546875 C 1.929688 -4.398438 1.453125 -3.414062 1.453125 -2.59375 C 1.453125 -2.039062 1.65625 -1.765625 2.0625 -1.765625 C 2.78125 -1.765625 3.679688 -2.453125 4.765625 -3.828125 C 5.816406 -5.148438 6.34375 -6.1875 6.34375 -6.9375 Z M 6.34375 -6.9375 "/></g></g><g transform="translate(130.812385, 19.352174)"><g><path d="M 7.625 -8.015625 C 7.625 -7.679688 7.546875 -7.347656 7.390625 -7.015625 C 7.191406 -6.609375 6.945312 -6.40625 6.65625 -6.40625 C 6.5 -6.40625 6.328125 -6.546875 6.140625 -6.828125 C 5.953125 -7.117188 5.789062 -7.265625 5.65625 -7.265625 C 5.21875 -7.265625 4.523438 -6.46875 3.578125 -4.875 C 3.242188 -4.300781 2.988281 -3.742188 2.8125 -3.203125 L 1.859375 -0.34375 C 1.785156 -0.113281 1.519531 0 1.0625 0 C 0.851562 0 0.675781 -0.09375 0.53125 -0.28125 C 0.394531 -0.476562 0.328125 -0.679688 0.328125 -0.890625 C 0.328125 -1.140625 0.441406 -1.582031 0.671875 -2.21875 C 0.953125 -2.96875 1.234375 -3.710938 1.515625 -4.453125 C 1.878906 -5.492188 2.0625 -6.234375 2.0625 -6.671875 C 2.0625 -7.253906 1.941406 -7.546875 1.703125 -7.546875 C 1.640625 -7.546875 1.546875 -7.519531 1.421875 -7.46875 C 1.304688 -7.414062 1.210938 -7.390625 1.140625 -7.390625 C 0.984375 -7.390625 0.90625 -7.472656 0.90625 -7.640625 C 0.90625 -7.929688 1.070312 -8.203125 1.40625 -8.453125 C 1.726562 -8.679688 2.035156 -8.796875 2.328125 -8.796875 C 2.890625 -8.796875 3.171875 -8.546875 3.171875 -8.046875 C 3.171875 -7.867188 3.125 -7.601562 3.03125 -7.25 C 2.945312 -6.90625 2.90625 -6.640625 2.90625 -6.453125 C 2.90625 -6.117188 3.003906 -5.953125 3.203125 -5.953125 C 3.335938 -5.953125 3.585938 -6.195312 3.953125 -6.6875 C 4.441406 -7.34375 4.832031 -7.800781 5.125 -8.0625 C 5.65625 -8.550781 6.195312 -8.796875 6.75 -8.796875 C 7.332031 -8.796875 7.625 -8.535156 7.625 -8.015625 Z M 7.625 -8.015625 "/></g></g><g transform="translate(138.616136, 19.352174)"><g><path d="M 8.875 -2.96875 C 8.875 -2.53125 8.515625 -1.929688 7.796875 -1.171875 C 7.078125 -0.421875 6.492188 -0.046875 6.046875 -0.046875 C 5.359375 -0.046875 5.015625 -0.421875 5.015625 -1.171875 C 5.015625 -1.328125 5.039062 -1.554688 5.09375 -1.859375 C 5.15625 -2.171875 5.1875 -2.40625 5.1875 -2.5625 C 5.1875 -2.75 5.132812 -2.84375 5.03125 -2.84375 C 4.96875 -2.84375 4.460938 -2.367188 3.515625 -1.421875 C 2.566406 -0.472656 1.863281 0 1.40625 0 C 1.007812 0 0.695312 -0.148438 0.46875 -0.453125 C 0.25 -0.734375 0.140625 -1.070312 0.140625 -1.46875 C 0.140625 -2.71875 0.738281 -4.132812 1.9375 -5.71875 C 3.207031 -7.414062 4.550781 -8.40625 5.96875 -8.6875 C 6.257812 -8.726562 6.691406 -8.804688 7.265625 -8.921875 C 7.753906 -9.253906 8.023438 -9.421875 8.078125 -9.421875 C 8.273438 -9.421875 8.375 -9.304688 8.375 -9.078125 C 8.375 -8.953125 8.34375 -8.800781 8.28125 -8.625 L 7.046875 -5.484375 C 6.523438 -4.140625 6.265625 -3.160156 6.265625 -2.546875 C 6.265625 -2.015625 6.488281 -1.75 6.9375 -1.75 C 7.125 -1.75 7.441406 -1.988281 7.890625 -2.46875 C 8.347656 -2.957031 8.617188 -3.203125 8.703125 -3.203125 C 8.816406 -3.203125 8.875 -3.125 8.875 -2.96875 Z M 6.34375 -6.9375 C 6.34375 -7.1875 6.125 -7.3125 5.6875 -7.3125 L 5.5625 -7.3125 C 4.757812 -7.3125 3.867188 -6.722656 2.890625 -5.546875 C 1.929688 -4.398438 1.453125 -3.414062 1.453125 -2.59375 C 1.453125 -2.039062 1.65625 -1.765625 2.0625 -1.765625 C 2.78125 -1.765625 3.679688 -2.453125 4.765625 -3.828125 C 5.816406 -5.148438 6.34375 -6.1875 6.34375 -6.9375 Z M 6.34375 -6.9375 "/></g></g><g transform="translate(148.381039, 19.352174)"><g/></g><g transform="translate(153.447348, 19.352174)"><g><path d="M 7.4375 -6.03125 C 7.4375 -4.695312 6.988281 -3.390625 6.09375 -2.109375 C 5.113281 -0.703125 3.988281 0 2.71875 0 C 1.894531 0 1.265625 -0.285156 0.828125 -0.859375 C 0.429688 -1.378906 0.234375 -2.0625 0.234375 -2.90625 C 0.234375 -4.300781 0.660156 -5.597656 1.515625 -6.796875 C 2.453125 -8.128906 3.59375 -8.796875 4.9375 -8.796875 C 6.601562 -8.796875 7.4375 -7.875 7.4375 -6.03125 Z M 6.03125 -6.046875 C 6.03125 -7.054688 5.628906 -7.5625 4.828125 -7.5625 C 3.992188 -7.5625 3.21875 -6.953125 2.5 -5.734375 C 1.863281 -4.640625 1.546875 -3.640625 1.546875 -2.734375 C 1.546875 -1.847656 1.984375 -1.40625 2.859375 -1.40625 C 3.765625 -1.40625 4.539062 -1.96875 5.1875 -3.09375 C 5.75 -4.082031 6.03125 -5.066406 6.03125 -6.046875 Z M 6.03125 -6.046875 "/></g></g><g transform="translate(161.434957, 19.352174)"><g/></g><g transform="translate(166.501266, 19.352174)"><g><path d="M 4.859375 -10.96875 C 4.859375 -10.632812 4.753906 -10.367188 4.546875 -10.171875 C 4.335938 -9.972656 4.066406 -9.875 3.734375 -9.875 C 3.054688 -9.875 2.71875 -10.203125 2.71875 -10.859375 C 2.71875 -11.179688 2.820312 -11.453125 3.03125 -11.671875 C 3.25 -11.890625 3.519531 -12 3.84375 -12 C 4.519531 -12 4.859375 -11.65625 4.859375 -10.96875 Z M 4.359375 -8.359375 C 4.359375 -8.140625 4.234375 -7.828125 3.984375 -7.421875 C 3.796875 -7.117188 3.609375 -6.8125 3.421875 -6.5 C 3.148438 -5.9375 2.875 -5.238281 2.59375 -4.40625 C 2.269531 -3.40625 2.109375 -2.6875 2.109375 -2.25 C 2.109375 -1.914062 2.335938 -1.75 2.796875 -1.75 C 2.898438 -1.75 3.03125 -1.796875 3.1875 -1.890625 C 3.351562 -1.992188 3.484375 -2.046875 3.578125 -2.046875 C 3.765625 -2.046875 3.859375 -1.957031 3.859375 -1.78125 C 3.859375 -1.425781 3.507812 -1.035156 2.8125 -0.609375 C 2.164062 -0.203125 1.648438 0 1.265625 0 C 0.648438 0 0.34375 -0.414062 0.34375 -1.25 C 0.34375 -1.769531 0.585938 -2.617188 1.078125 -3.796875 C 1.566406 -4.984375 1.8125 -5.726562 1.8125 -6.03125 C 1.8125 -6.164062 1.664062 -6.273438 1.375 -6.359375 C 0.976562 -6.453125 0.769531 -6.5 0.75 -6.5 C 0.78125 -6.78125 1.203125 -7.234375 2.015625 -7.859375 C 2.828125 -8.484375 3.378906 -8.796875 3.671875 -8.796875 C 4.128906 -8.796875 4.359375 -8.648438 4.359375 -8.359375 Z M 4.359375 -8.359375 "/></g></g><g transform="translate(172.088506, 19.352174)"><g><path d="M 8.59375 -2.125 C 8.59375 -1.6875 8.25 -1.226562 7.5625 -0.75 C 6.914062 -0.300781 6.363281 -0.078125 5.90625 -0.078125 C 5.207031 -0.078125 4.859375 -0.398438 4.859375 -1.046875 C 4.859375 -1.671875 5.21875 -2.613281 5.9375 -3.875 C 6.664062 -5.132812 7.03125 -6.066406 7.03125 -6.671875 C 7.03125 -7.035156 6.9375 -7.21875 6.75 -7.21875 C 6.082031 -7.21875 4.957031 -5.914062 3.375 -3.3125 C 3.175781 -3.019531 2.890625 -2.5625 2.515625 -1.9375 C 2.398438 -1.65625 2.207031 -1.25 1.9375 -0.71875 C 1.65625 -0.238281 1.351562 0 1.03125 0 C 0.445312 0 0.15625 -0.328125 0.15625 -0.984375 C 0.15625 -1.410156 0.320312 -1.976562 0.65625 -2.6875 C 1.15625 -3.71875 1.421875 -4.273438 1.453125 -4.359375 L 1.71875 -5.09375 C 1.957031 -5.757812 2.078125 -6.226562 2.078125 -6.5 C 2.078125 -7.050781 1.976562 -7.328125 1.78125 -7.328125 C 1.625 -7.328125 1.394531 -7.179688 1.09375 -6.890625 C 0.800781 -6.609375 0.585938 -6.46875 0.453125 -6.46875 C 0.253906 -6.46875 0.15625 -6.550781 0.15625 -6.71875 C 0.15625 -7.125 0.5 -7.578125 1.1875 -8.078125 C 1.84375 -8.554688 2.382812 -8.796875 2.8125 -8.796875 C 3.21875 -8.796875 3.421875 -8.617188 3.421875 -8.265625 C 3.421875 -7.929688 3.320312 -7.445312 3.125 -6.8125 C 2.925781 -6.175781 2.828125 -5.691406 2.828125 -5.359375 C 2.828125 -5.023438 2.910156 -4.859375 3.078125 -4.859375 C 3.285156 -4.859375 3.648438 -5.195312 4.171875 -5.875 C 4.910156 -6.863281 5.421875 -7.5 5.703125 -7.78125 C 6.367188 -8.457031 6.984375 -8.796875 7.546875 -8.796875 C 7.867188 -8.796875 8.125 -8.675781 8.3125 -8.4375 C 8.5 -8.195312 8.59375 -7.910156 8.59375 -7.578125 C 8.59375 -6.953125 8.25 -5.941406 7.5625 -4.546875 C 6.875 -3.117188 6.53125 -2.25 6.53125 -1.9375 C 6.53125 -1.664062 6.660156 -1.53125 6.921875 -1.53125 C 7.128906 -1.53125 7.390625 -1.664062 7.703125 -1.9375 C 8.023438 -2.207031 8.238281 -2.34375 8.34375 -2.34375 C 8.507812 -2.34375 8.59375 -2.269531 8.59375 -2.125 Z M 8.59375 -2.125 "/></g></g><g transform="translate(181.628694, 19.352174)"><g><path d="M 4.359375 -8.359375 C 4.359375 -8.140625 4.234375 -7.828125 3.984375 -7.421875 C 3.796875 -7.117188 3.609375 -6.8125 3.421875 -6.5 C 3.148438 -5.9375 2.875 -5.238281 2.59375 -4.40625 C 2.269531 -3.40625 2.109375 -2.6875 2.109375 -2.25 C 2.109375 -1.914062 2.335938 -1.75 2.796875 -1.75 C 2.898438 -1.75 3.03125 -1.796875 3.1875 -1.890625 C 3.351562 -1.992188 3.484375 -2.046875 3.578125 -2.046875 C 3.765625 -2.046875 3.859375 -1.957031 3.859375 -1.78125 C 3.859375 -1.425781 3.507812 -1.035156 2.8125 -0.609375 C 2.164062 -0.203125 1.648438 0 1.265625 0 C 0.648438 0 0.34375 -0.414062 0.34375 -1.25 C 0.34375 -1.769531 0.585938 -2.617188 1.078125 -3.796875 C 1.566406 -4.984375 1.8125 -5.726562 1.8125 -6.03125 C 1.8125 -6.164062 1.664062 -6.273438 1.375 -6.359375 C 0.976562 -6.453125 0.769531 -6.5 0.75 -6.5 C 0.78125 -6.78125 1.203125 -7.234375 2.015625 -7.859375 C 2.828125 -8.484375 3.378906 -8.796875 3.671875 -8.796875 C 4.128906 -8.796875 4.359375 -8.648438 4.359375 -8.359375 Z M 6.296875 -15.90625 C 6.296875 -15.675781 6.082031 -15.234375 5.65625 -14.578125 C 5.34375 -14.109375 5.050781 -13.519531 4.78125 -12.8125 C 4.5625 -12.1875 4.335938 -11.566406 4.109375 -10.953125 C 3.898438 -10.390625 3.671875 -10.109375 3.421875 -10.109375 C 3.222656 -10.109375 3.125 -10.226562 3.125 -10.46875 C 3.125 -10.800781 3.300781 -11.410156 3.65625 -12.296875 C 4.0625 -13.316406 4.296875 -13.960938 4.359375 -14.234375 C 4.390625 -14.546875 4.476562 -15 4.625 -15.59375 C 4.820312 -16.132812 5.125 -16.40625 5.53125 -16.40625 C 6.039062 -16.40625 6.296875 -16.238281 6.296875 -15.90625 Z M 6.296875 -15.90625 "/></g></g><g transform="translate(187.215934, 19.352174)"><g><path d="M 7.09375 -7.71875 C 7.09375 -7.1875 6.816406 -6.921875 6.265625 -6.921875 C 6.128906 -6.921875 5.910156 -7.023438 5.609375 -7.234375 C 5.316406 -7.453125 5.078125 -7.5625 4.890625 -7.5625 C 3.796875 -7.5625 2.890625 -7.03125 2.171875 -5.96875 C 1.515625 -5.019531 1.1875 -3.96875 1.1875 -2.8125 C 1.1875 -2.382812 1.3125 -2.039062 1.5625 -1.78125 C 1.8125 -1.53125 2.148438 -1.40625 2.578125 -1.40625 C 2.890625 -1.40625 3.320312 -1.535156 3.875 -1.796875 C 4.4375 -2.054688 4.785156 -2.1875 4.921875 -2.1875 C 5.285156 -2.1875 5.46875 -2.019531 5.46875 -1.6875 C 5.46875 -1.21875 5.078125 -0.804688 4.296875 -0.453125 C 3.628906 -0.148438 3.03125 0 2.5 0 C 1.625 0 0.972656 -0.328125 0.546875 -0.984375 C 0.171875 -1.554688 -0.015625 -2.296875 -0.015625 -3.203125 C -0.015625 -4.453125 0.328125 -5.582031 1.015625 -6.59375 C 1.734375 -7.644531 2.679688 -8.335938 3.859375 -8.671875 C 4.148438 -8.753906 4.441406 -8.796875 4.734375 -8.796875 C 5.210938 -8.796875 5.6875 -8.722656 6.15625 -8.578125 C 6.78125 -8.378906 7.09375 -8.09375 7.09375 -7.71875 Z M 7.09375 -7.71875 "/></g></g><g transform="translate(194.774541, 19.352174)"><g><path d="M 4.859375 -10.96875 C 4.859375 -10.632812 4.753906 -10.367188 4.546875 -10.171875 C 4.335938 -9.972656 4.066406 -9.875 3.734375 -9.875 C 3.054688 -9.875 2.71875 -10.203125 2.71875 -10.859375 C 2.71875 -11.179688 2.820312 -11.453125 3.03125 -11.671875 C 3.25 -11.890625 3.519531 -12 3.84375 -12 C 4.519531 -12 4.859375 -11.65625 4.859375 -10.96875 Z M 4.359375 -8.359375 C 4.359375 -8.140625 4.234375 -7.828125 3.984375 -7.421875 C 3.796875 -7.117188 3.609375 -6.8125 3.421875 -6.5 C 3.148438 -5.9375 2.875 -5.238281 2.59375 -4.40625 C 2.269531 -3.40625 2.109375 -2.6875 2.109375 -2.25 C 2.109375 -1.914062 2.335938 -1.75 2.796875 -1.75 C 2.898438 -1.75 3.03125 -1.796875 3.1875 -1.890625 C 3.351562 -1.992188 3.484375 -2.046875 3.578125 -2.046875 C 3.765625 -2.046875 3.859375 -1.957031 3.859375 -1.78125 C 3.859375 -1.425781 3.507812 -1.035156 2.8125 -0.609375 C 2.164062 -0.203125 1.648438 0 1.265625 0 C 0.648438 0 0.34375 -0.414062 0.34375 -1.25 C 0.34375 -1.769531 0.585938 -2.617188 1.078125 -3.796875 C 1.566406 -4.984375 1.8125 -5.726562 1.8125 -6.03125 C 1.8125 -6.164062 1.664062 -6.273438 1.375 -6.359375 C 0.976562 -6.453125 0.769531 -6.5 0.75 -6.5 C 0.78125 -6.78125 1.203125 -7.234375 2.015625 -7.859375 C 2.828125 -8.484375 3.378906 -8.796875 3.671875 -8.796875 C 4.128906 -8.796875 4.359375 -8.648438 4.359375 -8.359375 Z M 4.359375 -8.359375 "/></g></g><g transform="translate(200.361781, 19.352174)"><g><path d="M 7.4375 -6.03125 C 7.4375 -4.695312 6.988281 -3.390625 6.09375 -2.109375 C 5.113281 -0.703125 3.988281 0 2.71875 0 C 1.894531 0 1.265625 -0.285156 0.828125 -0.859375 C 0.429688 -1.378906 0.234375 -2.0625 0.234375 -2.90625 C 0.234375 -4.300781 0.660156 -5.597656 1.515625 -6.796875 C 2.453125 -8.128906 3.59375 -8.796875 4.9375 -8.796875 C 6.601562 -8.796875 7.4375 -7.875 7.4375 -6.03125 Z M 6.03125 -6.046875 C 6.03125 -7.054688 5.628906 -7.5625 4.828125 -7.5625 C 3.992188 -7.5625 3.21875 -6.953125 2.5 -5.734375 C 1.863281 -4.640625 1.546875 -3.640625 1.546875 -2.734375 C 1.546875 -1.847656 1.984375 -1.40625 2.859375 -1.40625 C 3.765625 -1.40625 4.539062 -1.96875 5.1875 -3.09375 C 5.75 -4.082031 6.03125 -5.066406 6.03125 -6.046875 Z M 6.03125 -6.046875 "/></g></g><g transform="translate(208.34939, 19.352174)"><g/></g><g transform="translate(213.415699, 19.352174)"><g><path d="M 12.515625 -17.421875 C 12.515625 -17.273438 12.410156 -17.050781 12.203125 -16.75 C 11.921875 -16.332031 11.773438 -16.101562 11.765625 -16.0625 C 11.617188 -15.769531 11.476562 -15.34375 11.34375 -14.78125 C 11.1875 -14.15625 10.941406 -13.207031 10.609375 -11.9375 L 8.28125 -3.296875 C 8.21875 -3.046875 8.1875 -2.84375 8.1875 -2.6875 C 8.1875 -2.238281 8.460938 -2.015625 9.015625 -2.015625 C 9.078125 -2.015625 9.203125 -2.054688 9.390625 -2.140625 C 9.578125 -2.234375 9.71875 -2.28125 9.8125 -2.28125 C 9.957031 -2.28125 10.03125 -2.191406 10.03125 -2.015625 C 10.03125 -1.566406 9.679688 -1.117188 8.984375 -0.671875 C 8.335938 -0.265625 7.769531 -0.0625 7.28125 -0.0625 C 6.570312 -0.0625 6.21875 -0.34375 6.21875 -0.90625 C 6.21875 -1.195312 6.304688 -1.613281 6.484375 -2.15625 C 6.671875 -2.695312 6.765625 -3.113281 6.765625 -3.40625 C 6.765625 -3.53125 6.726562 -3.59375 6.65625 -3.59375 C 6.644531 -3.59375 6.625 -3.585938 6.59375 -3.578125 C 6.175781 -2.828125 5.671875 -2.109375 5.078125 -1.421875 C 4.265625 -0.472656 3.59375 0 3.0625 0 C 2.226562 0 1.578125 -0.378906 1.109375 -1.140625 C 0.710938 -1.773438 0.515625 -2.535156 0.515625 -3.421875 C 0.515625 -4.691406 0.972656 -5.890625 1.890625 -7.015625 C 2.859375 -8.203125 3.960938 -8.796875 5.203125 -8.796875 C 5.410156 -8.796875 5.722656 -8.785156 6.140625 -8.765625 C 6.566406 -8.753906 6.882812 -8.75 7.09375 -8.75 C 7.726562 -8.75 8.179688 -8.945312 8.453125 -9.34375 C 8.492188 -9.40625 8.769531 -10.375 9.28125 -12.25 C 9.800781 -14.132812 10.0625 -15.128906 10.0625 -15.234375 C 10.0625 -15.472656 9.84375 -15.722656 9.40625 -15.984375 C 8.96875 -16.253906 8.75 -16.441406 8.75 -16.546875 C 8.75 -16.796875 9.082031 -16.921875 9.75 -16.921875 C 10.164062 -16.921875 10.972656 -17.210938 12.171875 -17.796875 C 12.398438 -17.785156 12.515625 -17.660156 12.515625 -17.421875 Z M 7.859375 -7.3125 C 7.859375 -7.644531 7.378906 -7.8125 6.421875 -7.8125 C 5.316406 -7.8125 4.316406 -7.320312 3.421875 -6.34375 C 2.523438 -5.375 2.078125 -4.332031 2.078125 -3.21875 C 2.078125 -2.832031 2.15625 -2.492188 2.3125 -2.203125 C 2.488281 -1.828125 2.753906 -1.640625 3.109375 -1.640625 C 3.503906 -1.640625 3.9375 -1.847656 4.40625 -2.265625 C 4.882812 -2.679688 5.554688 -3.488281 6.421875 -4.6875 C 7.378906 -6.007812 7.859375 -6.882812 7.859375 -7.3125 Z M 7.859375 -7.3125 "/></g></g><g transform="translate(224.620823, 19.352174)"><g><path d="M 7.4375 -6.03125 C 7.4375 -4.695312 6.988281 -3.390625 6.09375 -2.109375 C 5.113281 -0.703125 3.988281 0 2.71875 0 C 1.894531 0 1.265625 -0.285156 0.828125 -0.859375 C 0.429688 -1.378906 0.234375 -2.0625 0.234375 -2.90625 C 0.234375 -4.300781 0.660156 -5.597656 1.515625 -6.796875 C 2.453125 -8.128906 3.59375 -8.796875 4.9375 -8.796875 C 6.601562 -8.796875 7.4375 -7.875 7.4375 -6.03125 Z M 6.03125 -6.046875 C 6.03125 -7.054688 5.628906 -7.5625 4.828125 -7.5625 C 3.992188 -7.5625 3.21875 -6.953125 2.5 -5.734375 C 1.863281 -4.640625 1.546875 -3.640625 1.546875 -2.734375 C 1.546875 -1.847656 1.984375 -1.40625 2.859375 -1.40625 C 3.765625 -1.40625 4.539062 -1.96875 5.1875 -3.09375 C 5.75 -4.082031 6.03125 -5.066406 6.03125 -6.046875 Z M 6.03125 -6.046875 "/></g></g><g transform="translate(232.608432, 19.352174)"><g/></g><g transform="translate(237.674741, 19.352174)"><g><path d="M 8.59375 -2.125 C 8.59375 -1.6875 8.25 -1.226562 7.5625 -0.75 C 6.914062 -0.300781 6.363281 -0.078125 5.90625 -0.078125 C 5.207031 -0.078125 4.859375 -0.398438 4.859375 -1.046875 C 4.859375 -1.671875 5.21875 -2.613281 5.9375 -3.875 C 6.664062 -5.132812 7.03125 -6.066406 7.03125 -6.671875 C 7.03125 -7.035156 6.9375 -7.21875 6.75 -7.21875 C 6.082031 -7.21875 4.957031 -5.914062 3.375 -3.3125 C 3.175781 -3.019531 2.890625 -2.5625 2.515625 -1.9375 C 2.398438 -1.65625 2.207031 -1.25 1.9375 -0.71875 C 1.65625 -0.238281 1.351562 0 1.03125 0 C 0.445312 0 0.15625 -0.328125 0.15625 -0.984375 C 0.15625 -1.410156 0.320312 -1.976562 0.65625 -2.6875 C 1.15625 -3.71875 1.421875 -4.273438 1.453125 -4.359375 L 1.71875 -5.09375 C 1.957031 -5.757812 2.078125 -6.226562 2.078125 -6.5 C 2.078125 -7.050781 1.976562 -7.328125 1.78125 -7.328125 C 1.625 -7.328125 1.394531 -7.179688 1.09375 -6.890625 C 0.800781 -6.609375 0.585938 -6.46875 0.453125 -6.46875 C 0.253906 -6.46875 0.15625 -6.550781 0.15625 -6.71875 C 0.15625 -7.125 0.5 -7.578125 1.1875 -8.078125 C 1.84375 -8.554688 2.382812 -8.796875 2.8125 -8.796875 C 3.21875 -8.796875 3.421875 -8.617188 3.421875 -8.265625 C 3.421875 -7.929688 3.320312 -7.445312 3.125 -6.8125 C 2.925781 -6.175781 2.828125 -5.691406 2.828125 -5.359375 C 2.828125 -5.023438 2.910156 -4.859375 3.078125 -4.859375 C 3.285156 -4.859375 3.648438 -5.195312 4.171875 -5.875 C 4.910156 -6.863281 5.421875 -7.5 5.703125 -7.78125 C 6.367188 -8.457031 6.984375 -8.796875 7.546875 -8.796875 C 7.867188 -8.796875 8.125 -8.675781 8.3125 -8.4375 C 8.5 -8.195312 8.59375 -7.910156 8.59375 -7.578125 C 8.59375 -6.953125 8.25 -5.941406 7.5625 -4.546875 C 6.875 -3.117188 6.53125 -2.25 6.53125 -1.9375 C 6.53125 -1.664062 6.660156 -1.53125 6.921875 -1.53125 C 7.128906 -1.53125 7.390625 -1.664062 7.703125 -1.9375 C 8.023438 -2.207031 8.238281 -2.34375 8.34375 -2.34375 C 8.507812 -2.34375 8.59375 -2.269531 8.59375 -2.125 Z M 8.59375 -2.125 "/></g></g><g transform="translate(247.214929, 19.352174)"><g><path d="M 7.4375 -6.03125 C 7.4375 -4.695312 6.988281 -3.390625 6.09375 -2.109375 C 5.113281 -0.703125 3.988281 0 2.71875 0 C 1.894531 0 1.265625 -0.285156 0.828125 -0.859375 C 0.429688 -1.378906 0.234375 -2.0625 0.234375 -2.90625 C 0.234375 -4.300781 0.660156 -5.597656 1.515625 -6.796875 C 2.453125 -8.128906 3.59375 -8.796875 4.9375 -8.796875 C 6.601562 -8.796875 7.4375 -7.875 7.4375 -6.03125 Z M 6.03125 -6.046875 C 6.03125 -7.054688 5.628906 -7.5625 4.828125 -7.5625 C 3.992188 -7.5625 3.21875 -6.953125 2.5 -5.734375 C 1.863281 -4.640625 1.546875 -3.640625 1.546875 -2.734375 C 1.546875 -1.847656 1.984375 -1.40625 2.859375 -1.40625 C 3.765625 -1.40625 4.539062 -1.96875 5.1875 -3.09375 C 5.75 -4.082031 6.03125 -5.066406 6.03125 -6.046875 Z M 6.03125 -6.046875 "/></g></g><g transform="translate(255.202538, 19.352174)"><g><path d="M 5.734375 -7.25 C 5.734375 -6.613281 5.628906 -6.296875 5.421875 -6.296875 C 5.304688 -6.296875 5.035156 -6.492188 4.609375 -6.890625 C 4.179688 -7.285156 3.804688 -7.484375 3.484375 -7.484375 C 3.140625 -7.484375 2.847656 -7.34375 2.609375 -7.0625 C 2.367188 -6.789062 2.25 -6.484375 2.25 -6.140625 C 2.25 -5.847656 2.507812 -5.46875 3.03125 -5 C 3.96875 -4.164062 4.445312 -3.738281 4.46875 -3.71875 C 4.976562 -3.164062 5.234375 -2.632812 5.234375 -2.125 C 5.234375 -1.488281 4.976562 -0.96875 4.46875 -0.5625 C 4 -0.1875 3.4375 0 2.78125 0 C 2.238281 0 1.722656 -0.109375 1.234375 -0.328125 C 0.617188 -0.609375 0.3125 -0.984375 0.3125 -1.453125 C 0.3125 -2.171875 0.425781 -2.53125 0.65625 -2.53125 C 0.664062 -2.53125 0.6875 -2.523438 0.71875 -2.515625 C 1.476562 -1.828125 2.128906 -1.484375 2.671875 -1.484375 C 3.316406 -1.484375 3.640625 -1.765625 3.640625 -2.328125 C 3.640625 -2.554688 3.453125 -2.859375 3.078125 -3.234375 C 2.492188 -3.816406 2.140625 -4.1875 2.015625 -4.34375 C 1.640625 -4.84375 1.453125 -5.359375 1.453125 -5.890625 C 1.453125 -6.640625 1.660156 -7.296875 2.078125 -7.859375 C 2.535156 -8.484375 3.125 -8.796875 3.84375 -8.796875 C 4.101562 -8.796875 4.429688 -8.71875 4.828125 -8.5625 C 5.253906 -8.382812 5.519531 -8.191406 5.625 -7.984375 C 5.695312 -7.847656 5.734375 -7.601562 5.734375 -7.25 Z M 5.734375 -7.25 "/></g></g><g transform="translate(261.984855, 19.352174)"><g><path d="M 5.734375 -7.25 C 5.734375 -6.613281 5.628906 -6.296875 5.421875 -6.296875 C 5.304688 -6.296875 5.035156 -6.492188 4.609375 -6.890625 C 4.179688 -7.285156 3.804688 -7.484375 3.484375 -7.484375 C 3.140625 -7.484375 2.847656 -7.34375 2.609375 -7.0625 C 2.367188 -6.789062 2.25 -6.484375 2.25 -6.140625 C 2.25 -5.847656 2.507812 -5.46875 3.03125 -5 C 3.96875 -4.164062 4.445312 -3.738281 4.46875 -3.71875 C 4.976562 -3.164062 5.234375 -2.632812 5.234375 -2.125 C 5.234375 -1.488281 4.976562 -0.96875 4.46875 -0.5625 C 4 -0.1875 3.4375 0 2.78125 0 C 2.238281 0 1.722656 -0.109375 1.234375 -0.328125 C 0.617188 -0.609375 0.3125 -0.984375 0.3125 -1.453125 C 0.3125 -2.171875 0.425781 -2.53125 0.65625 -2.53125 C 0.664062 -2.53125 0.6875 -2.523438 0.71875 -2.515625 C 1.476562 -1.828125 2.128906 -1.484375 2.671875 -1.484375 C 3.316406 -1.484375 3.640625 -1.765625 3.640625 -2.328125 C 3.640625 -2.554688 3.453125 -2.859375 3.078125 -3.234375 C 2.492188 -3.816406 2.140625 -4.1875 2.015625 -4.34375 C 1.640625 -4.84375 1.453125 -5.359375 1.453125 -5.890625 C 1.453125 -6.640625 1.660156 -7.296875 2.078125 -7.859375 C 2.535156 -8.484375 3.125 -8.796875 3.84375 -8.796875 C 4.101562 -8.796875 4.429688 -8.71875 4.828125 -8.5625 C 5.253906 -8.382812 5.519531 -8.191406 5.625 -7.984375 C 5.695312 -7.847656 5.734375 -7.601562 5.734375 -7.25 Z M 5.734375 -7.25 "/></g></g><g transform="translate(268.767172, 19.352174)"><g><path d="M 7.4375 -6.03125 C 7.4375 -4.695312 6.988281 -3.390625 6.09375 -2.109375 C 5.113281 -0.703125 3.988281 0 2.71875 0 C 1.894531 0 1.265625 -0.285156 0.828125 -0.859375 C 0.429688 -1.378906 0.234375 -2.0625 0.234375 -2.90625 C 0.234375 -4.300781 0.660156 -5.597656 1.515625 -6.796875 C 2.453125 -8.128906 3.59375 -8.796875 4.9375 -8.796875 C 6.601562 -8.796875 7.4375 -7.875 7.4375 -6.03125 Z M 6.03125 -6.046875 C 6.03125 -7.054688 5.628906 -7.5625 4.828125 -7.5625 C 3.992188 -7.5625 3.21875 -6.953125 2.5 -5.734375 C 1.863281 -4.640625 1.546875 -3.640625 1.546875 -2.734375 C 1.546875 -1.847656 1.984375 -1.40625 2.859375 -1.40625 C 3.765625 -1.40625 4.539062 -1.96875 5.1875 -3.09375 C 5.75 -4.082031 6.03125 -5.066406 6.03125 -6.046875 Z M 6.03125 -6.046875 "/></g></g><g transform="translate(276.754781, 19.352174)"><g/></g><g transform="translate(281.821091, 19.352174)"><g><path d="M 8.578125 -6.484375 C 8.578125 -6.015625 8.425781 -5.265625 8.125 -4.234375 C 7.925781 -3.578125 7.570312 -2.96875 7.0625 -2.40625 C 6.53125 -1.820312 5.953125 -1.4375 5.328125 -1.25 C 5.085938 -1.1875 4.691406 -1.15625 4.140625 -1.15625 C 3.597656 -1.15625 3.195312 -1.019531 2.9375 -0.75 C 2.757812 -0.570312 2.5625 -0.191406 2.34375 0.390625 C 1.570312 2.390625 1.1875 3.828125 1.1875 4.703125 C 1.1875 5.035156 1.363281 5.28125 1.71875 5.4375 C 1.726562 5.445312 2.066406 5.546875 2.734375 5.734375 C 3.085938 5.828125 3.265625 5.972656 3.265625 6.171875 C 3.265625 6.453125 3.082031 6.59375 2.71875 6.59375 C 2.476562 6.59375 2.128906 6.535156 1.671875 6.421875 C 1.222656 6.304688 0.878906 6.25 0.640625 6.25 C 0.472656 6.25 0.21875 6.253906 -0.125 6.265625 C -0.46875 6.285156 -0.726562 6.296875 -0.90625 6.296875 C -1.550781 6.296875 -1.875 6.15625 -1.875 5.875 C -1.875 5.800781 -1.695312 5.695312 -1.34375 5.5625 C -0.9375 5.414062 -0.648438 5.148438 -0.484375 4.765625 C -0.328125 4.390625 0.0195312 3.226562 0.5625 1.28125 C 0.695312 0.789062 1.253906 -1.253906 2.234375 -4.859375 C 2.628906 -6.304688 2.828125 -7.050781 2.828125 -7.09375 C 2.828125 -7.21875 2.65625 -7.3125 2.3125 -7.375 C 1.96875 -7.445312 1.796875 -7.570312 1.796875 -7.75 C 1.796875 -7.800781 1.976562 -7.9375 2.34375 -8.15625 C 2.726562 -8.375 2.960938 -8.5625 3.046875 -8.71875 C 3.128906 -9.050781 3.21875 -9.390625 3.3125 -9.734375 C 3.425781 -10.097656 3.695312 -10.28125 4.125 -10.28125 C 4.65625 -10.28125 4.921875 -10.113281 4.921875 -9.78125 C 4.921875 -9.6875 4.894531 -9.546875 4.84375 -9.359375 C 4.789062 -9.179688 4.765625 -9.046875 4.765625 -8.953125 C 4.765625 -8.691406 4.972656 -8.5625 5.390625 -8.5625 C 5.546875 -8.5625 5.773438 -8.597656 6.078125 -8.671875 C 6.390625 -8.753906 6.628906 -8.796875 6.796875 -8.796875 C 7.335938 -8.796875 7.78125 -8.535156 8.125 -8.015625 C 8.425781 -7.554688 8.578125 -7.046875 8.578125 -6.484375 Z M 7.203125 -6.484375 C 7.203125 -6.921875 7.050781 -7.28125 6.75 -7.5625 C 6.445312 -7.851562 6.078125 -8 5.640625 -8 C 5.140625 -8 4.71875 -7.71875 4.375 -7.15625 C 4.1875 -6.84375 3.953125 -6.160156 3.671875 -5.109375 C 3.390625 -4.054688 3.25 -3.335938 3.25 -2.953125 C 3.25 -2.359375 3.59375 -2.0625 4.28125 -2.0625 C 5.03125 -2.0625 5.722656 -2.625 6.359375 -3.75 C 6.921875 -4.738281 7.203125 -5.648438 7.203125 -6.484375 Z M 7.203125 -6.484375 "/></g></g><g transform="translate(290.901633, 19.352174)"><g><path d="M 8.875 -2.96875 C 8.875 -2.53125 8.515625 -1.929688 7.796875 -1.171875 C 7.078125 -0.421875 6.492188 -0.046875 6.046875 -0.046875 C 5.359375 -0.046875 5.015625 -0.421875 5.015625 -1.171875 C 5.015625 -1.328125 5.039062 -1.554688 5.09375 -1.859375 C 5.15625 -2.171875 5.1875 -2.40625 5.1875 -2.5625 C 5.1875 -2.75 5.132812 -2.84375 5.03125 -2.84375 C 4.96875 -2.84375 4.460938 -2.367188 3.515625 -1.421875 C 2.566406 -0.472656 1.863281 0 1.40625 0 C 1.007812 0 0.695312 -0.148438 0.46875 -0.453125 C 0.25 -0.734375 0.140625 -1.070312 0.140625 -1.46875 C 0.140625 -2.71875 0.738281 -4.132812 1.9375 -5.71875 C 3.207031 -7.414062 4.550781 -8.40625 5.96875 -8.6875 C 6.257812 -8.726562 6.691406 -8.804688 7.265625 -8.921875 C 7.753906 -9.253906 8.023438 -9.421875 8.078125 -9.421875 C 8.273438 -9.421875 8.375 -9.304688 8.375 -9.078125 C 8.375 -8.953125 8.34375 -8.800781 8.28125 -8.625 L 7.046875 -5.484375 C 6.523438 -4.140625 6.265625 -3.160156 6.265625 -2.546875 C 6.265625 -2.015625 6.488281 -1.75 6.9375 -1.75 C 7.125 -1.75 7.441406 -1.988281 7.890625 -2.46875 C 8.347656 -2.957031 8.617188 -3.203125 8.703125 -3.203125 C 8.816406 -3.203125 8.875 -3.125 8.875 -2.96875 Z M 6.34375 -6.9375 C 6.34375 -7.1875 6.125 -7.3125 5.6875 -7.3125 L 5.5625 -7.3125 C 4.757812 -7.3125 3.867188 -6.722656 2.890625 -5.546875 C 1.929688 -4.398438 1.453125 -3.414062 1.453125 -2.59375 C 1.453125 -2.039062 1.65625 -1.765625 2.0625 -1.765625 C 2.78125 -1.765625 3.679688 -2.453125 4.765625 -3.828125 C 5.816406 -5.148438 6.34375 -6.1875 6.34375 -6.9375 Z M 6.34375 -6.9375 "/></g></g><g transform="translate(300.666536, 19.352174)"><g><path d="M 7.625 -8.015625 C 7.625 -7.679688 7.546875 -7.347656 7.390625 -7.015625 C 7.191406 -6.609375 6.945312 -6.40625 6.65625 -6.40625 C 6.5 -6.40625 6.328125 -6.546875 6.140625 -6.828125 C 5.953125 -7.117188 5.789062 -7.265625 5.65625 -7.265625 C 5.21875 -7.265625 4.523438 -6.46875 3.578125 -4.875 C 3.242188 -4.300781 2.988281 -3.742188 2.8125 -3.203125 L 1.859375 -0.34375 C 1.785156 -0.113281 1.519531 0 1.0625 0 C 0.851562 0 0.675781 -0.09375 0.53125 -0.28125 C 0.394531 -0.476562 0.328125 -0.679688 0.328125 -0.890625 C 0.328125 -1.140625 0.441406 -1.582031 0.671875 -2.21875 C 0.953125 -2.96875 1.234375 -3.710938 1.515625 -4.453125 C 1.878906 -5.492188 2.0625 -6.234375 2.0625 -6.671875 C 2.0625 -7.253906 1.941406 -7.546875 1.703125 -7.546875 C 1.640625 -7.546875 1.546875 -7.519531 1.421875 -7.46875 C 1.304688 -7.414062 1.210938 -7.390625 1.140625 -7.390625 C 0.984375 -7.390625 0.90625 -7.472656 0.90625 -7.640625 C 0.90625 -7.929688 1.070312 -8.203125 1.40625 -8.453125 C 1.726562 -8.679688 2.035156 -8.796875 2.328125 -8.796875 C 2.890625 -8.796875 3.171875 -8.546875 3.171875 -8.046875 C 3.171875 -7.867188 3.125 -7.601562 3.03125 -7.25 C 2.945312 -6.90625 2.90625 -6.640625 2.90625 -6.453125 C 2.90625 -6.117188 3.003906 -5.953125 3.203125 -5.953125 C 3.335938 -5.953125 3.585938 -6.195312 3.953125 -6.6875 C 4.441406 -7.34375 4.832031 -7.800781 5.125 -8.0625 C 5.65625 -8.550781 6.195312 -8.796875 6.75 -8.796875 C 7.332031 -8.796875 7.625 -8.535156 7.625 -8.015625 Z M 7.625 -8.015625 "/></g></g><g transform="translate(308.470287, 19.352174)"><g><path d="M 8.875 -2.96875 C 8.875 -2.53125 8.515625 -1.929688 7.796875 -1.171875 C 7.078125 -0.421875 6.492188 -0.046875 6.046875 -0.046875 C 5.359375 -0.046875 5.015625 -0.421875 5.015625 -1.171875 C 5.015625 -1.328125 5.039062 -1.554688 5.09375 -1.859375 C 5.15625 -2.171875 5.1875 -2.40625 5.1875 -2.5625 C 5.1875 -2.75 5.132812 -2.84375 5.03125 -2.84375 C 4.96875 -2.84375 4.460938 -2.367188 3.515625 -1.421875 C 2.566406 -0.472656 1.863281 0 1.40625 0 C 1.007812 0 0.695312 -0.148438 0.46875 -0.453125 C 0.25 -0.734375 0.140625 -1.070312 0.140625 -1.46875 C 0.140625 -2.71875 0.738281 -4.132812 1.9375 -5.71875 C 3.207031 -7.414062 4.550781 -8.40625 5.96875 -8.6875 C 6.257812 -8.726562 6.691406 -8.804688 7.265625 -8.921875 C 7.753906 -9.253906 8.023438 -9.421875 8.078125 -9.421875 C 8.273438 -9.421875 8.375 -9.304688 8.375 -9.078125 C 8.375 -8.953125 8.34375 -8.800781 8.28125 -8.625 L 7.046875 -5.484375 C 6.523438 -4.140625 6.265625 -3.160156 6.265625 -2.546875 C 6.265625 -2.015625 6.488281 -1.75 6.9375 -1.75 C 7.125 -1.75 7.441406 -1.988281 7.890625 -2.46875 C 8.347656 -2.957031 8.617188 -3.203125 8.703125 -3.203125 C 8.816406 -3.203125 8.875 -3.125 8.875 -2.96875 Z M 6.34375 -6.9375 C 6.34375 -7.1875 6.125 -7.3125 5.6875 -7.3125 L 5.5625 -7.3125 C 4.757812 -7.3125 3.867188 -6.722656 2.890625 -5.546875 C 1.929688 -4.398438 1.453125 -3.414062 1.453125 -2.59375 C 1.453125 -2.039062 1.65625 -1.765625 2.0625 -1.765625 C 2.78125 -1.765625 3.679688 -2.453125 4.765625 -3.828125 C 5.816406 -5.148438 6.34375 -6.1875 6.34375 -6.9375 Z M 6.34375 -6.9375 "/></g></g><g transform="translate(318.235189, 19.352174)"><g/></g><g transform="translate(323.301499, 19.352174)"><g><path d="M 5.734375 -7.25 C 5.734375 -6.613281 5.628906 -6.296875 5.421875 -6.296875 C 5.304688 -6.296875 5.035156 -6.492188 4.609375 -6.890625 C 4.179688 -7.285156 3.804688 -7.484375 3.484375 -7.484375 C 3.140625 -7.484375 2.847656 -7.34375 2.609375 -7.0625 C 2.367188 -6.789062 2.25 -6.484375 2.25 -6.140625 C 2.25 -5.847656 2.507812 -5.46875 3.03125 -5 C 3.96875 -4.164062 4.445312 -3.738281 4.46875 -3.71875 C 4.976562 -3.164062 5.234375 -2.632812 5.234375 -2.125 C 5.234375 -1.488281 4.976562 -0.96875 4.46875 -0.5625 C 4 -0.1875 3.4375 0 2.78125 0 C 2.238281 0 1.722656 -0.109375 1.234375 -0.328125 C 0.617188 -0.609375 0.3125 -0.984375 0.3125 -1.453125 C 0.3125 -2.171875 0.425781 -2.53125 0.65625 -2.53125 C 0.664062 -2.53125 0.6875 -2.523438 0.71875 -2.515625 C 1.476562 -1.828125 2.128906 -1.484375 2.671875 -1.484375 C 3.316406 -1.484375 3.640625 -1.765625 3.640625 -2.328125 C 3.640625 -2.554688 3.453125 -2.859375 3.078125 -3.234375 C 2.492188 -3.816406 2.140625 -4.1875 2.015625 -4.34375 C 1.640625 -4.84375 1.453125 -5.359375 1.453125 -5.890625 C 1.453125 -6.640625 1.660156 -7.296875 2.078125 -7.859375 C 2.535156 -8.484375 3.125 -8.796875 3.84375 -8.796875 C 4.101562 -8.796875 4.429688 -8.71875 4.828125 -8.5625 C 5.253906 -8.382812 5.519531 -8.191406 5.625 -7.984375 C 5.695312 -7.847656 5.734375 -7.601562 5.734375 -7.25 Z M 5.734375 -7.25 "/></g></g><g transform="translate(330.083816, 19.352174)"><g><path d="M 6.59375 -6.96875 C 6.59375 -6.269531 6.210938 -5.65625 5.453125 -5.125 C 4.753906 -4.625 4.046875 -4.375 3.328125 -4.375 C 3.210938 -4.375 3.046875 -4.394531 2.828125 -4.4375 C 2.609375 -4.476562 2.441406 -4.5 2.328125 -4.5 C 1.648438 -4.5 1.3125 -3.976562 1.3125 -2.9375 C 1.3125 -1.914062 1.800781 -1.40625 2.78125 -1.40625 C 3.332031 -1.40625 3.914062 -1.640625 4.53125 -2.109375 C 5.15625 -2.578125 5.453125 -2.8125 5.421875 -2.8125 C 5.828125 -2.8125 6.03125 -2.707031 6.03125 -2.5 C 6.03125 -2.414062 5.992188 -2.304688 5.921875 -2.171875 C 5.585938 -1.515625 5.109375 -0.988281 4.484375 -0.59375 C 3.867188 -0.195312 3.203125 0 2.484375 0 C 1.617188 0 0.96875 -0.335938 0.53125 -1.015625 C 0.164062 -1.578125 -0.015625 -2.316406 -0.015625 -3.234375 C -0.015625 -4.648438 0.394531 -5.90625 1.21875 -7 C 2.101562 -8.195312 3.234375 -8.796875 4.609375 -8.796875 C 5.128906 -8.796875 5.585938 -8.617188 5.984375 -8.265625 C 6.390625 -7.910156 6.59375 -7.476562 6.59375 -6.96875 Z M 5.15625 -6.515625 C 5.15625 -6.804688 5.046875 -7.050781 4.828125 -7.25 C 4.617188 -7.457031 4.375 -7.5625 4.09375 -7.5625 C 3.71875 -7.5625 3.347656 -7.359375 2.984375 -6.953125 C 2.628906 -6.554688 2.453125 -6.175781 2.453125 -5.8125 C 2.453125 -5.644531 2.546875 -5.5 2.734375 -5.375 C 2.910156 -5.257812 3.085938 -5.203125 3.265625 -5.203125 C 3.640625 -5.203125 4.035156 -5.328125 4.453125 -5.578125 C 4.921875 -5.859375 5.15625 -6.171875 5.15625 -6.515625 Z M 5.15625 -6.515625 "/></g></g><g transform="translate(336.917205, 19.352174)"><g><path d="M 14.0625 -7.46875 C 14.0625 -6.769531 13.660156 -5.753906 12.859375 -4.421875 C 12.066406 -3.097656 11.671875 -2.21875 11.671875 -1.78125 C 11.671875 -1.476562 11.800781 -1.328125 12.0625 -1.328125 C 12.1875 -1.328125 12.414062 -1.453125 12.75 -1.703125 C 13.09375 -1.953125 13.320312 -2.078125 13.4375 -2.078125 C 13.664062 -2.078125 13.78125 -1.96875 13.78125 -1.75 C 13.78125 -1.4375 13.425781 -1.0625 12.71875 -0.625 C 12.0625 -0.207031 11.554688 0 11.203125 0 C 10.753906 0 10.4375 -0.0625 10.25 -0.1875 C 10.007812 -0.351562 9.890625 -0.65625 9.890625 -1.09375 C 9.890625 -1.394531 10.304688 -2.273438 11.140625 -3.734375 C 11.972656 -5.191406 12.390625 -6.148438 12.390625 -6.609375 C 12.390625 -6.898438 12.207031 -7.046875 11.84375 -7.046875 C 11.59375 -7.046875 11.0625 -6.585938 10.25 -5.671875 C 9.570312 -4.910156 9.082031 -4.304688 8.78125 -3.859375 C 8.34375 -3.117188 7.90625 -2.378906 7.46875 -1.640625 C 6.800781 -0.617188 6.195312 -0.109375 5.65625 -0.109375 C 5.28125 -0.109375 5.09375 -0.34375 5.09375 -0.8125 C 5.09375 -1.445312 5.4375 -2.425781 6.125 -3.75 C 6.820312 -5.070312 7.171875 -6.0625 7.171875 -6.71875 C 7.171875 -7.101562 7.035156 -7.296875 6.765625 -7.296875 C 6.160156 -7.296875 5.238281 -6.347656 4 -4.453125 C 3.238281 -3.191406 2.476562 -1.929688 1.71875 -0.671875 C 1.414062 -0.222656 1.0625 0 0.65625 0 C 0.28125 0 0.09375 -0.234375 0.09375 -0.703125 C 0.09375 -0.941406 0.257812 -1.445312 0.59375 -2.21875 L 1.578125 -4.5 C 1.910156 -5.269531 2.078125 -5.921875 2.078125 -6.453125 C 2.078125 -7.046875 1.898438 -7.335938 1.546875 -7.328125 C 1.335938 -7.097656 1 -6.78125 0.53125 -6.375 C 0.394531 -6.34375 0.289062 -6.328125 0.21875 -6.328125 C 0.0078125 -6.328125 -0.09375 -6.394531 -0.09375 -6.53125 C -0.09375 -6.882812 0.3125 -7.359375 1.125 -7.953125 C 1.90625 -8.515625 2.484375 -8.796875 2.859375 -8.796875 C 3.304688 -8.796875 3.53125 -8.601562 3.53125 -8.21875 C 3.53125 -7.90625 3.425781 -7.441406 3.21875 -6.828125 C 3.007812 -6.222656 2.90625 -5.757812 2.90625 -5.4375 C 2.90625 -5.113281 3.003906 -4.957031 3.203125 -4.96875 C 3.703125 -5.488281 4.457031 -6.257812 5.46875 -7.28125 C 6.507812 -8.289062 7.414062 -8.796875 8.1875 -8.796875 C 8.34375 -8.796875 8.492188 -8.75 8.640625 -8.65625 C 8.796875 -8.5625 8.875 -8.441406 8.875 -8.296875 C 8.875 -8.035156 8.722656 -7.59375 8.421875 -6.96875 C 8.117188 -6.34375 7.96875 -5.828125 7.96875 -5.421875 C 7.96875 -5.316406 8.007812 -5.207031 8.09375 -5.09375 C 8.175781 -4.988281 8.265625 -4.9375 8.359375 -4.9375 C 8.679688 -4.9375 8.988281 -5.128906 9.28125 -5.515625 C 9.363281 -5.640625 9.488281 -5.820312 9.65625 -6.0625 C 10.050781 -6.613281 10.570312 -7.175781 11.21875 -7.75 C 12.019531 -8.445312 12.65625 -8.796875 13.125 -8.796875 C 13.4375 -8.796875 13.679688 -8.644531 13.859375 -8.34375 C 13.992188 -8.101562 14.0625 -7.8125 14.0625 -7.46875 Z M 14.0625 -7.46875 "/></g></g><g transform="translate(351.615631, 19.352174)"><g><path d="M 8.578125 -6.484375 C 8.578125 -6.015625 8.425781 -5.265625 8.125 -4.234375 C 7.925781 -3.578125 7.570312 -2.96875 7.0625 -2.40625 C 6.53125 -1.820312 5.953125 -1.4375 5.328125 -1.25 C 5.085938 -1.1875 4.691406 -1.15625 4.140625 -1.15625 C 3.597656 -1.15625 3.195312 -1.019531 2.9375 -0.75 C 2.757812 -0.570312 2.5625 -0.191406 2.34375 0.390625 C 1.570312 2.390625 1.1875 3.828125 1.1875 4.703125 C 1.1875 5.035156 1.363281 5.28125 1.71875 5.4375 C 1.726562 5.445312 2.066406 5.546875 2.734375 5.734375 C 3.085938 5.828125 3.265625 5.972656 3.265625 6.171875 C 3.265625 6.453125 3.082031 6.59375 2.71875 6.59375 C 2.476562 6.59375 2.128906 6.535156 1.671875 6.421875 C 1.222656 6.304688 0.878906 6.25 0.640625 6.25 C 0.472656 6.25 0.21875 6.253906 -0.125 6.265625 C -0.46875 6.285156 -0.726562 6.296875 -0.90625 6.296875 C -1.550781 6.296875 -1.875 6.15625 -1.875 5.875 C -1.875 5.800781 -1.695312 5.695312 -1.34375 5.5625 C -0.9375 5.414062 -0.648438 5.148438 -0.484375 4.765625 C -0.328125 4.390625 0.0195312 3.226562 0.5625 1.28125 C 0.695312 0.789062 1.253906 -1.253906 2.234375 -4.859375 C 2.628906 -6.304688 2.828125 -7.050781 2.828125 -7.09375 C 2.828125 -7.21875 2.65625 -7.3125 2.3125 -7.375 C 1.96875 -7.445312 1.796875 -7.570312 1.796875 -7.75 C 1.796875 -7.800781 1.976562 -7.9375 2.34375 -8.15625 C 2.726562 -8.375 2.960938 -8.5625 3.046875 -8.71875 C 3.128906 -9.050781 3.21875 -9.390625 3.3125 -9.734375 C 3.425781 -10.097656 3.695312 -10.28125 4.125 -10.28125 C 4.65625 -10.28125 4.921875 -10.113281 4.921875 -9.78125 C 4.921875 -9.6875 4.894531 -9.546875 4.84375 -9.359375 C 4.789062 -9.179688 4.765625 -9.046875 4.765625 -8.953125 C 4.765625 -8.691406 4.972656 -8.5625 5.390625 -8.5625 C 5.546875 -8.5625 5.773438 -8.597656 6.078125 -8.671875 C 6.390625 -8.753906 6.628906 -8.796875 6.796875 -8.796875 C 7.335938 -8.796875 7.78125 -8.535156 8.125 -8.015625 C 8.425781 -7.554688 8.578125 -7.046875 8.578125 -6.484375 Z M 7.203125 -6.484375 C 7.203125 -6.921875 7.050781 -7.28125 6.75 -7.5625 C 6.445312 -7.851562 6.078125 -8 5.640625 -8 C 5.140625 -8 4.71875 -7.71875 4.375 -7.15625 C 4.1875 -6.84375 3.953125 -6.160156 3.671875 -5.109375 C 3.390625 -4.054688 3.25 -3.335938 3.25 -2.953125 C 3.25 -2.359375 3.59375 -2.0625 4.28125 -2.0625 C 5.03125 -2.0625 5.722656 -2.625 6.359375 -3.75 C 6.921875 -4.738281 7.203125 -5.648438 7.203125 -6.484375 Z M 7.203125 -6.484375 "/></g></g><g transform="translate(360.696174, 19.352174)"><g><path d="M 7.625 -8.015625 C 7.625 -7.679688 7.546875 -7.347656 7.390625 -7.015625 C 7.191406 -6.609375 6.945312 -6.40625 6.65625 -6.40625 C 6.5 -6.40625 6.328125 -6.546875 6.140625 -6.828125 C 5.953125 -7.117188 5.789062 -7.265625 5.65625 -7.265625 C 5.21875 -7.265625 4.523438 -6.46875 3.578125 -4.875 C 3.242188 -4.300781 2.988281 -3.742188 2.8125 -3.203125 L 1.859375 -0.34375 C 1.785156 -0.113281 1.519531 0 1.0625 0 C 0.851562 0 0.675781 -0.09375 0.53125 -0.28125 C 0.394531 -0.476562 0.328125 -0.679688 0.328125 -0.890625 C 0.328125 -1.140625 0.441406 -1.582031 0.671875 -2.21875 C 0.953125 -2.96875 1.234375 -3.710938 1.515625 -4.453125 C 1.878906 -5.492188 2.0625 -6.234375 2.0625 -6.671875 C 2.0625 -7.253906 1.941406 -7.546875 1.703125 -7.546875 C 1.640625 -7.546875 1.546875 -7.519531 1.421875 -7.46875 C 1.304688 -7.414062 1.210938 -7.390625 1.140625 -7.390625 C 0.984375 -7.390625 0.90625 -7.472656 0.90625 -7.640625 C 0.90625 -7.929688 1.070312 -8.203125 1.40625 -8.453125 C 1.726562 -8.679688 2.035156 -8.796875 2.328125 -8.796875 C 2.890625 -8.796875 3.171875 -8.546875 3.171875 -8.046875 C 3.171875 -7.867188 3.125 -7.601562 3.03125 -7.25 C 2.945312 -6.90625 2.90625 -6.640625 2.90625 -6.453125 C 2.90625 -6.117188 3.003906 -5.953125 3.203125 -5.953125 C 3.335938 -5.953125 3.585938 -6.195312 3.953125 -6.6875 C 4.441406 -7.34375 4.832031 -7.800781 5.125 -8.0625 C 5.65625 -8.550781 6.195312 -8.796875 6.75 -8.796875 C 7.332031 -8.796875 7.625 -8.535156 7.625 -8.015625 Z M 7.625 -8.015625 "/></g></g><g transform="translate(368.499924, 19.352174)"><g><path d="M 6.59375 -6.96875 C 6.59375 -6.269531 6.210938 -5.65625 5.453125 -5.125 C 4.753906 -4.625 4.046875 -4.375 3.328125 -4.375 C 3.210938 -4.375 3.046875 -4.394531 2.828125 -4.4375 C 2.609375 -4.476562 2.441406 -4.5 2.328125 -4.5 C 1.648438 -4.5 1.3125 -3.976562 1.3125 -2.9375 C 1.3125 -1.914062 1.800781 -1.40625 2.78125 -1.40625 C 3.332031 -1.40625 3.914062 -1.640625 4.53125 -2.109375 C 5.15625 -2.578125 5.453125 -2.8125 5.421875 -2.8125 C 5.828125 -2.8125 6.03125 -2.707031 6.03125 -2.5 C 6.03125 -2.414062 5.992188 -2.304688 5.921875 -2.171875 C 5.585938 -1.515625 5.109375 -0.988281 4.484375 -0.59375 C 3.867188 -0.195312 3.203125 0 2.484375 0 C 1.617188 0 0.96875 -0.335938 0.53125 -1.015625 C 0.164062 -1.578125 -0.015625 -2.316406 -0.015625 -3.234375 C -0.015625 -4.648438 0.394531 -5.90625 1.21875 -7 C 2.101562 -8.195312 3.234375 -8.796875 4.609375 -8.796875 C 5.128906 -8.796875 5.585938 -8.617188 5.984375 -8.265625 C 6.390625 -7.910156 6.59375 -7.476562 6.59375 -6.96875 Z M 5.15625 -6.515625 C 5.15625 -6.804688 5.046875 -7.050781 4.828125 -7.25 C 4.617188 -7.457031 4.375 -7.5625 4.09375 -7.5625 C 3.71875 -7.5625 3.347656 -7.359375 2.984375 -6.953125 C 2.628906 -6.554688 2.453125 -6.175781 2.453125 -5.8125 C 2.453125 -5.644531 2.546875 -5.5 2.734375 -5.375 C 2.910156 -5.257812 3.085938 -5.203125 3.265625 -5.203125 C 3.640625 -5.203125 4.035156 -5.328125 4.453125 -5.578125 C 4.921875 -5.859375 5.15625 -6.171875 5.15625 -6.515625 Z M 5.15625 -6.515625 "/></g></g></g></g></g></g></svg>